<svg xmlns="http://www.w3.org/2000/svg" width="500" height="191.417" viewBox="0 0 43.838 16.783">
  <defs>
    <style>
      .cls-1 {
        font-size: 2px;
        font-family: Helvetica;
        letter-spacing: 0.008em;
      }

      .cls-2 {
        fill-rule: evenodd;
      }

      .cls-3 {
        fill: none;
      }
    </style>
  </defs>
  <g id="g3981" transform="translate(-951.698 -1851.968)">
    <g id="g3977" transform="translate(659.736 812.192)">
      <g id="g3975" transform="translate(291.479 1040.295)">
        <g id="g3951" transform="translate(0.684 0.684)">
          <g id="g3949">
            <path id="path3939" d="M10.469,0C7.477,0,6.915,4.262,8.6,4.262S13.462,0,10.469,0Z"/>
            <path id="path3941" d="M5.5,3.734c.9.055,1.88-3.421.2-3.2S4.6,3.679,5.5,3.734Z"/>
            <path id="path3943" d="M1.392,5.894c.638-.281.082-3.025-1-2.277S.755,6.174,1.392,5.894Z"/>
            <path id="path3945" d="M3.188,4.457c.759-.155.8-3.268-.553-2.709S2.43,4.612,3.188,4.457Z"/>
            <path id="path3947" d="M7.151,11.423c.135,1.028-.754,1.536-1.625.873-2.772-2.11,4.589-3.163,4.1-6.046-.4-2.393-7.745-1.656-8.582,2.088-.566,2.533,2.33,6.046,5.351,6.046a3.9,3.9,0,0,0,3.522-3.042C10.166,10.046,7.039,10.565,7.151,11.423Z"/>
          </g>
        </g>
        <g id="g3969" transform="translate(-181.877 -55.957)">
          <path id="path3953" d="M208.317,60.577a2.3,2.3,0,0,0-1.786.811,4.016,4.016,0,0,0,0,4.475,2.583,2.583,0,0,0,3.758,0,4.023,4.023,0,0,0,0-4.475,2.321,2.321,0,0,0-1.88-.811Zm.056,1.1h.036a1.022,1.022,0,0,1,.913.511,3.354,3.354,0,0,1,0,2.877,1.066,1.066,0,0,1-1.822,0,3.355,3.355,0,0,1,0-2.877A1.016,1.016,0,0,1,208.373,61.675Z"/>
          <path id="path3955" d="M199.8,66.122a3.242,3.242,0,0,1-2.063.551,2.5,2.5,0,0,1-1.969-.819,3.245,3.245,0,0,1-.726-2.228,3.2,3.2,0,0,1,.74-2.236,2.6,2.6,0,0,1,2.026-.815,4.008,4.008,0,0,1,.95.11,3.591,3.591,0,0,1,.86.327l-.345,1.021a3.513,3.513,0,0,0-.485-.222,2.57,2.57,0,0,0-.823-.138,1.444,1.444,0,0,0-1.183.508,2.224,2.224,0,0,0-.413,1.445,2.28,2.28,0,0,0,.4,1.441,1.391,1.391,0,0,0,1.136.508,1.48,1.48,0,0,0,.929-.247V64.312H197.8V63.3h2"/>
          <path id="path3957" d="M200.681,60.683h.809l2.558,3.532V60.683h1.092v5.876h-.809l-2.558-3.532v3.532h-1.092V60.683"/>
          <path id="path3959" d="M211.81,60.683h1.633l1.133,3.669,1.14-3.669h1.38l.624,5.876h-1.213l-.374-3.675-1.146,3.692h-.813l-1.146-3.817-.374,3.8h-1.216l.624-5.876"/>
          <path id="path3961" d="M218.6,60.683h3.462v1.145h-2.179v1.219h1.675v1.021h-1.675v1.346h2.253v1.145H218.6V60.683"/>
          <text id="text3967" class="cls-1" transform="translate(223.197 60.642)"><tspan x="0" y="0">TM</tspan></text>
        </g>
        <g id="text3973">
          <path id="path4108" class="cls-2" d="M13.167,13.6V11.588h.426V13.6Z"/>
          <path id="path4110" class="cls-2" d="M15.879,13.6h-.541l-.873-1.519h-.012q.026.4.026.574V13.6H14.1V11.588h.537l.872,1.5h.01q-.021-.391-.021-.553v-.95h.383Z"/>
          <path id="path4112" class="cls-2" d="M18.05,12.572a.987.987,0,0,1-.283.759,1.148,1.148,0,0,1-.814.264h-.568V11.588h.63a1.061,1.061,0,0,1,.763.26A.955.955,0,0,1,18.05,12.572Zm-.442.011q0-.647-.571-.647H16.81v1.307h.183Q17.608,13.244,17.608,12.583Z"/>
          <path id="path4114" class="cls-2" d="M20.288,12.589a1.089,1.089,0,0,1-.247.766,1.071,1.071,0,0,1-1.417,0,1.094,1.094,0,0,1-.247-.769,1.078,1.078,0,0,1,.247-.765.928.928,0,0,1,.711-.265.912.912,0,0,1,.707.266,1.09,1.09,0,0,1,.246.766Zm-1.465,0a.839.839,0,0,0,.128.507.447.447,0,0,0,.382.17q.509,0,.509-.677t-.507-.678a.449.449,0,0,0-.383.172.832.832,0,0,0-.129.507Z"/>
          <path id="path4116" class="cls-2" d="M22.485,13.6h-.541l-.873-1.519h-.012q.026.4.026.574V13.6H20.7V11.588h.537l.872,1.5h.01q-.021-.391-.021-.553v-.95h.383Z"/>
          <path id="path4118" class="cls-2" d="M24.147,13.6H22.991V11.588h1.156v.349h-.73v.441h.68v.349h-.68v.518h.73Z"/>
          <path id="path4120" class="cls-2" d="M25.751,13.038a.518.518,0,0,1-.2.428.847.847,0,0,1-.544.157,1.279,1.279,0,0,1-.568-.121v-.4a2.357,2.357,0,0,0,.343.128,1.026,1.026,0,0,0,.258.037.363.363,0,0,0,.214-.054.183.183,0,0,0,.076-.159.173.173,0,0,0-.033-.1.359.359,0,0,0-.1-.089,2.408,2.408,0,0,0-.26-.136,1.233,1.233,0,0,1-.276-.166.624.624,0,0,1-.147-.185.529.529,0,0,1-.055-.247.52.52,0,0,1,.18-.419.753.753,0,0,1,.5-.152,1.171,1.171,0,0,1,.3.037,2.041,2.041,0,0,1,.3.1l-.137.331a1.991,1.991,0,0,0-.266-.092.847.847,0,0,0-.206-.026.274.274,0,0,0-.185.056.2.2,0,0,0-.038.246.3.3,0,0,0,.082.081,2.816,2.816,0,0,0,.271.14,1.068,1.068,0,0,1,.386.271.524.524,0,0,1,.1.331Z"/>
          <path id="path4122" class="cls-2" d="M26.114,13.6V11.588h.426V13.6Z"/>
          <path id="path4124" class="cls-2" d="M28.274,13.6l-.146-.478H27.4l-.146.478h-.459l.709-2.016h.52l.711,2.016Zm-.247-.835-.228-.735q-.025-.085-.036-.135-.045.176-.26.869Z"/>
        </g>
      </g>
    </g>
    <rect id="rect3979" class="cls-3" width="43.156" height="16.783" transform="translate(951.698 1851.968)"/>
  </g>
</svg>
