<svg id="svg" version="1.1" xmlns="http://www.w3.org/2000/svg" xmlns:xlink="http://www.w3.org/1999/xlink" width="400" height="103.51390922401171" viewBox="0, 0, 400,103.51390922401171"><g id="svgg"><path id="path0" d="M60.417 11.417 C 58.767 11.717,56.535 12.092,55.458 12.251 L 53.500 12.540 53.500 42.748 L 53.500 72.957 54.208 73.137 C 64.499 75.760,74.065 75.991,79.377 73.744 C 83.697 71.916,86.019 70.062,88.379 66.555 C 89.817 64.419,91.224 60.832,91.507 58.583 C 91.587 57.942,91.729 56.854,91.821 56.167 C 92.714 49.537,90.998 42.010,87.471 37.083 C 86.984 36.403,84.166 33.667,83.953 33.667 C 83.859 33.667,83.543 33.485,83.251 33.262 C 81.932 32.256,79.348 31.346,76.333 30.827 C 73.405 30.322,68.059 30.891,65.664 31.962 C 65.069 32.228,64.377 32.497,64.125 32.559 L 63.667 32.673 63.667 21.753 C 63.667 15.747,63.610 10.842,63.542 10.853 C 63.473 10.863,62.067 11.117,60.417 11.417 M170.583 16.745 C 168.703 16.988,168.296 17.074,167.000 17.502 C 166.496 17.669,165.671 17.921,165.167 18.063 C 164.662 18.204,163.805 18.548,163.261 18.827 C 162.717 19.105,162.191 19.333,162.092 19.333 C 161.993 19.333,161.522 19.596,161.046 19.917 C 160.570 20.237,160.128 20.500,160.065 20.500 C 159.328 20.500,153.000 26.476,153.000 27.171 C 153.000 27.247,152.885 27.424,152.745 27.565 C 152.502 27.808,151.637 29.242,150.975 30.500 C 149.747 32.834,148.405 36.813,148.165 38.833 C 148.083 39.521,147.924 40.683,147.812 41.417 C 147.258 45.043,147.764 52.956,148.765 56.307 C 149.002 57.101,149.264 58.029,149.348 58.370 C 149.640 59.567,151.687 63.788,152.478 64.827 C 152.719 65.144,152.954 65.493,153.000 65.604 C 153.161 65.990,155.593 68.604,156.553 69.423 C 157.086 69.878,157.709 70.419,157.937 70.625 C 158.164 70.831,158.436 71.000,158.540 71.000 C 158.643 71.000,158.883 71.142,159.073 71.316 C 159.817 72.001,162.065 73.042,165.072 74.096 C 168.583 75.326,176.147 75.808,180.750 75.094 C 181.758 74.938,183.122 74.739,183.780 74.652 C 184.439 74.565,185.774 74.232,186.748 73.913 C 187.722 73.594,188.627 73.333,188.759 73.333 C 189.077 73.333,192.357 71.864,192.633 71.597 C 192.810 71.427,192.731 71.055,192.202 69.569 C 191.083 66.421,190.642 65.116,190.335 64.033 C 189.947 62.663,189.977 62.678,188.847 63.299 C 188.312 63.593,187.762 63.833,187.625 63.833 C 187.487 63.833,186.949 64.022,186.429 64.252 C 180.869 66.710,170.892 66.654,167.308 64.143 C 167.064 63.973,166.776 63.833,166.668 63.833 C 166.084 63.833,163.275 61.194,162.189 59.625 C 159.404 55.601,157.882 47.659,158.828 42.083 C 158.922 41.533,158.999 40.809,158.999 40.474 C 159.001 38.950,161.255 33.403,162.344 32.239 C 162.522 32.050,162.667 31.841,162.667 31.775 C 162.667 31.601,163.650 30.572,164.806 29.537 C 169.162 25.637,176.612 24.748,184.249 27.217 C 185.440 27.602,186.976 28.198,187.662 28.542 C 188.349 28.885,188.962 29.167,189.026 29.167 C 189.089 29.167,189.231 28.885,189.342 28.542 C 189.453 28.198,189.596 27.842,189.660 27.750 C 189.772 27.589,190.049 26.816,190.495 25.417 C 190.612 25.050,190.843 24.447,191.008 24.078 C 191.174 23.708,191.359 23.183,191.420 22.911 C 191.481 22.639,191.688 22.024,191.879 21.544 C 192.070 21.064,192.194 20.644,192.155 20.610 C 191.933 20.423,189.959 19.333,189.842 19.333 C 189.764 19.333,189.262 19.116,188.725 18.851 C 188.189 18.586,187.450 18.290,187.083 18.193 C 186.717 18.096,185.537 17.783,184.462 17.497 C 181.136 16.614,174.414 16.250,170.583 16.745 M339.861 17.410 C 338.976 17.624,338.751 17.712,337.345 18.393 C 335.623 19.226,333.943 21.351,333.416 23.363 C 333.100 24.568,333.118 27.114,333.447 27.529 C 333.542 27.651,333.670 27.957,333.731 28.211 C 333.791 28.464,333.970 28.835,334.129 29.034 C 334.905 30.009,336.117 31.211,336.652 31.536 C 336.981 31.736,337.287 31.946,337.333 32.003 C 337.379 32.060,338.054 32.410,338.833 32.780 C 342.805 34.667,343.081 34.828,343.672 35.609 C 345.927 38.588,340.749 40.377,336.833 37.972 C 336.421 37.719,335.858 37.406,335.583 37.277 C 335.308 37.148,334.902 36.846,334.679 36.605 C 334.148 36.029,333.901 36.052,333.564 36.708 C 333.412 37.006,333.234 37.287,333.168 37.333 C 333.103 37.379,332.802 37.867,332.500 38.417 C 332.198 38.967,331.812 39.596,331.642 39.814 C 331.472 40.033,331.333 40.309,331.333 40.427 C 331.333 40.546,331.215 40.761,331.071 40.905 C 330.927 41.049,330.833 41.293,330.863 41.448 C 330.911 41.696,333.072 43.323,333.363 43.330 C 333.426 43.332,333.952 43.553,334.534 43.823 C 337.440 45.168,341.206 45.416,345.250 44.530 C 350.160 43.454,352.945 36.658,350.039 32.843 C 348.898 31.345,345.561 28.833,344.711 28.833 C 344.402 28.833,341.255 27.277,340.583 26.792 C 338.494 25.284,339.570 23.000,342.371 23.000 C 343.584 23.000,346.249 23.848,347.165 24.525 C 347.666 24.896,348.167 24.849,348.167 24.431 C 348.167 24.295,348.429 23.737,348.750 23.189 C 349.071 22.642,349.333 22.117,349.333 22.023 C 349.333 21.928,349.596 21.403,349.917 20.856 C 350.641 19.619,350.686 19.784,349.458 19.151 C 348.885 18.856,348.206 18.506,347.948 18.373 C 347.456 18.120,346.315 17.802,344.500 17.412 C 343.163 17.124,341.045 17.124,339.861 17.410 M235.189 17.928 C 234.534 18.256,233.913 18.687,233.809 18.887 C 233.704 19.087,233.516 19.310,233.391 19.384 C 232.409 19.964,232.006 23.816,232.778 25.250 C 235.526 30.359,243.244 28.517,243.249 22.750 C 243.252 18.578,238.988 16.028,235.189 17.928 M314.500 17.821 C 314.500 17.906,314.237 18.544,313.917 19.239 C 313.596 19.933,313.333 20.585,313.333 20.687 C 313.333 20.788,313.070 21.433,312.749 22.120 C 312.427 22.806,312.116 23.567,312.058 23.809 C 311.999 24.052,311.700 24.799,311.392 25.471 C 311.085 26.142,310.833 26.769,310.833 26.865 C 310.833 26.960,310.571 27.599,310.250 28.284 C 309.929 28.969,309.667 29.630,309.667 29.753 C 309.667 29.875,309.404 30.544,309.083 31.239 C 308.762 31.933,308.500 32.583,308.500 32.682 C 308.500 32.781,308.267 33.362,307.981 33.973 C 307.696 34.584,307.328 35.458,307.164 35.917 C 307.000 36.375,306.671 37.183,306.433 37.713 C 306.195 38.243,306.000 38.758,306.000 38.857 C 306.000 38.957,305.737 39.599,305.417 40.284 C 305.096 40.969,304.833 41.629,304.833 41.751 C 304.833 41.873,304.570 42.523,304.248 43.195 L 303.662 44.417 307.035 44.462 C 310.778 44.512,310.833 44.505,310.833 43.955 C 310.833 43.742,310.895 43.495,310.970 43.408 C 311.097 43.260,311.606 41.955,312.249 40.125 L 312.528 39.333 317.487 39.333 L 322.446 39.333 322.640 39.758 C 322.746 39.991,322.835 40.273,322.836 40.383 C 322.838 40.493,323.108 41.221,323.437 42.000 C 323.765 42.779,324.086 43.642,324.149 43.917 L 324.263 44.417 327.796 44.462 L 331.328 44.507 331.182 44.123 C 331.102 43.912,330.840 43.334,330.601 42.839 C 330.362 42.343,330.167 41.843,330.167 41.728 C 330.167 41.613,329.914 40.964,329.605 40.287 C 329.297 39.609,328.948 38.761,328.831 38.402 C 328.714 38.044,328.404 37.305,328.142 36.762 C 327.881 36.219,327.667 35.679,327.667 35.563 C 327.667 35.447,327.417 34.804,327.112 34.134 C 326.807 33.465,326.504 32.707,326.440 32.450 C 326.376 32.194,326.100 31.524,325.828 30.962 C 325.556 30.401,325.333 29.843,325.333 29.723 C 325.333 29.603,325.122 29.068,324.863 28.534 C 324.604 27.999,324.263 27.167,324.105 26.684 C 323.947 26.202,323.596 25.349,323.326 24.790 C 323.055 24.232,322.833 23.677,322.833 23.557 C 322.833 23.438,322.571 22.780,322.250 22.095 C 321.929 21.409,321.667 20.772,321.667 20.679 C 321.667 20.585,321.452 20.038,321.189 19.463 C 320.927 18.887,320.659 18.248,320.595 18.042 C 320.470 17.642,314.500 17.426,314.500 17.821 M354.333 31.083 L 354.333 44.500 357.500 44.500 L 360.667 44.500 360.667 31.083 L 360.667 17.667 357.500 17.667 L 354.333 17.667 354.333 31.083 M372.701 18.042 C 372.597 18.248,372.366 18.829,372.188 19.333 C 371.798 20.438,371.336 21.584,370.475 23.583 C 370.119 24.408,369.829 25.138,369.831 25.204 C 369.832 25.271,369.610 25.812,369.338 26.406 C 369.066 27.001,368.791 27.697,368.727 27.952 C 368.664 28.208,368.361 28.952,368.056 29.606 C 367.750 30.260,367.500 30.876,367.500 30.976 C 367.500 31.076,367.305 31.591,367.067 32.120 C 366.829 32.650,366.500 33.458,366.336 33.917 C 366.172 34.375,365.804 35.250,365.519 35.860 C 365.233 36.471,365.000 37.050,365.000 37.148 C 365.000 37.245,364.777 37.812,364.505 38.406 C 364.232 39.001,363.959 39.697,363.897 39.952 C 363.834 40.208,363.543 40.942,363.249 41.583 C 362.760 42.652,362.448 43.444,362.216 44.208 C 362.134 44.479,362.368 44.500,365.537 44.500 L 368.947 44.500 369.373 43.375 C 369.608 42.756,370.009 41.688,370.265 41.000 C 370.520 40.313,370.800 39.656,370.885 39.542 C 371.004 39.383,372.204 39.334,375.895 39.336 L 380.750 39.338 381.376 40.877 C 381.720 41.724,382.001 42.500,382.001 42.603 C 382.000 42.705,382.160 43.174,382.356 43.644 L 382.711 44.500 386.123 44.500 C 389.176 44.500,389.525 44.472,389.434 44.235 C 389.378 44.089,389.284 43.770,389.225 43.526 C 389.166 43.283,388.866 42.534,388.559 41.863 C 388.252 41.192,388.000 40.573,388.000 40.488 C 388.000 40.403,387.700 39.668,387.333 38.853 C 386.967 38.039,386.667 37.308,386.668 37.228 C 386.669 37.148,386.415 36.483,386.105 35.750 C 385.187 33.580,384.529 31.961,384.277 31.250 C 384.047 30.603,383.747 29.872,382.563 27.083 C 382.252 26.350,381.998 25.687,381.999 25.610 C 381.999 25.533,381.692 24.745,381.316 23.860 C 380.940 22.974,380.377 21.650,380.065 20.917 C 379.753 20.183,379.498 19.522,379.499 19.448 C 379.499 19.373,379.341 18.942,379.146 18.489 L 378.792 17.667 375.841 17.667 C 372.947 17.667,372.886 17.674,372.701 18.042 M221.906 22.999 C 221.075 23.071,219.800 23.296,219.073 23.499 C 218.345 23.703,217.375 23.963,216.917 24.077 C 215.860 24.341,213.676 25.360,213.671 25.593 C 213.669 25.689,213.854 26.023,214.083 26.333 C 214.313 26.644,214.500 26.979,214.500 27.078 C 214.500 27.177,214.762 27.656,215.083 28.143 C 215.404 28.631,215.667 29.105,215.667 29.197 C 215.667 29.290,215.807 29.564,215.979 29.808 C 216.151 30.051,216.527 30.719,216.815 31.292 C 217.411 32.478,217.443 32.488,218.771 31.899 C 221.488 30.694,226.963 30.737,229.724 31.985 C 230.351 32.268,230.933 32.500,231.017 32.500 C 231.101 32.500,231.544 32.762,232.000 33.083 C 232.456 33.404,232.887 33.667,232.957 33.667 C 233.026 33.668,233.369 33.930,233.718 34.251 C 234.066 34.571,234.404 34.833,234.469 34.833 C 234.533 34.833,234.960 35.285,235.418 35.836 C 235.876 36.388,236.438 37.062,236.667 37.334 C 237.709 38.573,239.174 42.191,239.469 44.259 L 239.587 45.083 242.752 45.133 C 244.493 45.161,246.235 45.137,246.625 45.081 L 247.333 44.980 247.331 44.115 C 247.324 41.193,245.739 36.467,243.875 33.811 C 243.577 33.386,243.333 32.992,243.333 32.934 C 243.333 32.787,241.456 30.497,240.950 30.027 L 240.530 29.637 239.321 29.931 C 235.553 30.847,231.417 28.177,230.593 24.298 C 230.388 23.332,225.864 22.656,221.906 22.999 M317.915 27.542 C 318.207 28.471,318.234 28.540,318.903 30.062 C 319.140 30.600,319.333 31.141,319.333 31.265 C 319.333 31.389,319.521 31.900,319.750 32.401 C 320.359 33.733,320.478 33.667,317.500 33.667 C 316.033 33.667,314.833 33.610,314.833 33.542 C 314.832 33.416,315.155 32.578,316.163 30.083 C 316.459 29.350,316.762 28.525,316.836 28.250 C 317.305 26.508,317.541 26.353,317.915 27.542 M210.912 27.007 C 210.854 27.102,210.524 27.358,210.179 27.575 C 208.869 28.403,204.833 32.575,204.833 33.103 C 204.833 33.169,204.726 33.342,204.595 33.487 C 203.107 35.132,201.083 40.598,201.817 40.991 C 204.671 42.519,204.869 48.515,202.159 51.361 C 201.361 52.198,201.355 52.472,202.091 54.323 C 203.941 58.977,206.629 62.586,210.113 65.093 C 211.435 66.043,211.212 66.171,212.750 63.575 C 213.483 62.337,214.249 61.045,214.452 60.704 C 215.462 59.002,215.445 59.209,214.637 58.531 C 206.684 51.857,206.687 40.904,214.643 34.138 L 215.363 33.526 214.600 32.304 C 214.180 31.633,213.643 30.719,213.406 30.274 C 213.170 29.829,212.773 29.184,212.525 28.842 C 212.277 28.499,211.934 27.907,211.762 27.526 C 211.458 26.853,211.131 26.653,210.912 27.007 M376.318 27.792 C 376.538 28.319,376.921 29.313,377.169 30.000 C 377.417 30.688,377.773 31.587,377.961 32.000 C 378.148 32.412,378.348 32.956,378.404 33.208 L 378.506 33.667 375.819 33.667 C 373.324 33.667,373.140 33.646,373.251 33.375 C 373.318 33.215,373.426 32.857,373.493 32.581 C 373.559 32.304,373.737 31.817,373.887 31.497 C 374.037 31.178,374.380 30.317,374.648 29.583 C 375.778 26.498,375.777 26.500,376.318 27.792 M5.837 44.708 C 5.842 59.647,5.899 60.872,6.729 63.780 C 8.193 68.910,10.875 71.996,15.472 73.839 C 17.146 74.510,17.697 74.635,20.667 75.022 C 24.407 75.510,31.850 74.950,37.500 73.756 C 38.554 73.533,39.848 73.267,40.375 73.163 L 41.333 72.976 41.333 52.238 L 41.333 31.500 36.333 31.500 L 31.333 31.500 31.333 48.649 C 31.333 64.824,31.317 65.804,31.042 65.917 C 30.436 66.165,24.665 66.379,23.008 66.215 C 18.772 65.796,16.756 63.279,16.001 57.465 C 15.915 56.797,15.841 50.681,15.838 43.875 L 15.833 31.500 10.833 31.500 L 5.833 31.500 5.837 44.708 M101.333 44.316 C 101.333 58.022,101.387 59.231,102.157 62.750 C 102.697 65.215,103.809 67.953,104.542 68.620 C 104.702 68.766,104.833 68.974,104.833 69.083 C 104.833 69.313,107.644 72.167,107.871 72.167 C 107.954 72.167,108.261 72.349,108.553 72.571 C 109.083 72.976,109.866 73.352,111.750 74.109 C 115.621 75.664,125.057 75.477,133.583 73.675 C 134.408 73.501,135.515 73.272,136.042 73.167 L 137.000 72.976 137.000 52.238 L 137.000 31.500 131.917 31.500 L 126.833 31.500 126.833 48.660 L 126.833 65.820 126.208 65.981 C 125.244 66.229,119.913 66.377,118.381 66.198 C 115.804 65.898,113.987 64.624,112.910 62.364 C 111.643 59.704,111.624 59.448,111.547 44.458 L 111.481 31.500 106.407 31.500 L 101.333 31.500 101.333 44.316 M270.417 31.941 C 270.142 31.973,268.829 32.116,267.500 32.257 C 264.715 32.554,263.719 32.721,261.434 33.270 C 260.526 33.488,259.664 33.667,259.517 33.668 C 259.370 33.668,258.969 33.747,258.625 33.842 L 258.000 34.016 258.000 54.758 L 258.000 75.500 263.083 75.500 L 268.165 75.500 268.208 58.292 L 268.250 41.083 269.417 40.982 C 270.058 40.927,271.517 40.787,272.658 40.671 C 278.012 40.128,280.808 41.274,282.466 44.691 C 282.994 45.778,283.086 46.226,283.505 49.750 C 283.593 50.483,283.665 56.577,283.665 63.292 L 283.667 75.500 288.759 75.500 L 293.851 75.500 293.784 61.375 C 293.713 46.439,293.747 47.165,292.928 43.392 C 292.621 41.979,292.591 41.888,291.977 40.530 C 291.714 39.951,291.500 39.418,291.500 39.346 C 291.500 39.274,291.237 38.871,290.917 38.451 C 290.596 38.030,290.333 37.625,290.333 37.550 C 290.333 37.106,286.122 33.667,285.578 33.667 C 285.520 33.667,284.941 33.434,284.292 33.149 C 281.881 32.090,274.590 31.456,270.417 31.941 M73.637 39.576 C 78.862 40.371,81.573 44.849,81.562 52.667 C 81.551 60.760,78.189 65.553,72.031 66.254 C 70.273 66.455,66.059 66.329,64.417 66.028 L 63.750 65.906 63.707 53.791 L 63.664 41.676 64.108 41.385 C 64.521 41.114,65.502 40.674,67.083 40.049 C 68.649 39.430,71.384 39.233,73.637 39.576 M195.744 40.997 C 192.103 41.539,190.181 46.267,192.321 49.418 C 195.376 53.920,202.325 51.817,202.332 46.389 C 202.334 44.372,201.755 43.203,200.083 41.851 C 199.154 41.099,197.388 40.752,195.744 40.997 M239.601 47.686 C 239.561 47.813,239.485 48.222,239.433 48.596 C 238.781 53.281,234.435 59.171,230.833 60.249 C 230.604 60.318,230.335 60.439,230.236 60.518 C 228.458 61.932,222.299 62.136,219.003 60.889 C 218.406 60.663,217.798 60.440,217.653 60.394 C 217.463 60.333,217.246 60.583,216.882 61.279 C 215.931 63.100,215.372 64.111,214.936 64.803 C 214.696 65.183,214.500 65.552,214.500 65.625 C 214.500 65.697,214.313 66.032,214.083 66.369 C 213.517 67.202,213.524 67.218,214.708 67.794 C 218.460 69.616,224.479 70.289,228.727 69.360 C 229.631 69.162,230.390 69.000,230.415 69.000 C 230.440 69.000,230.541 68.679,230.640 68.287 C 231.669 64.199,236.349 61.465,239.804 62.933 L 240.417 63.193 241.528 61.998 C 242.613 60.831,244.020 58.916,244.527 57.917 C 244.667 57.642,245.018 56.957,245.307 56.396 C 245.597 55.835,245.833 55.289,245.833 55.183 C 245.833 55.077,246.029 54.524,246.269 53.955 C 246.755 52.800,247.328 49.882,247.331 48.542 L 247.333 47.667 244.273 47.667 C 242.590 47.667,240.867 47.619,240.443 47.561 C 239.864 47.482,239.655 47.513,239.601 47.686 M313.417 47.972 C 312.253 48.236,311.609 48.504,310.314 49.264 C 309.577 49.696,307.167 52.193,307.167 52.525 C 307.167 52.615,306.975 52.940,306.741 53.247 C 306.107 54.079,305.613 55.520,305.876 55.772 C 306.416 56.290,310.879 58.197,311.031 57.975 C 311.115 57.851,311.431 57.256,311.733 56.651 C 312.034 56.047,312.424 55.399,312.599 55.211 C 312.774 55.024,313.168 54.602,313.475 54.275 C 314.276 53.422,315.354 52.935,316.123 53.080 C 319.657 53.743,320.289 57.903,317.375 61.332 C 317.077 61.683,316.833 62.037,316.833 62.119 C 316.833 62.201,316.571 62.522,316.250 62.833 C 315.929 63.144,315.667 63.467,315.667 63.551 C 315.667 63.755,308.416 71.000,308.212 71.000 C 308.125 71.000,307.777 71.281,307.439 71.625 C 307.100 71.969,306.526 72.512,306.162 72.833 C 305.550 73.374,305.501 73.481,305.500 74.292 L 305.500 75.167 316.000 75.167 L 326.500 75.167 326.500 72.333 L 326.500 69.500 321.875 69.497 L 317.250 69.495 317.833 69.009 C 318.154 68.741,318.768 68.236,319.196 67.886 C 320.262 67.016,322.833 64.558,322.833 64.409 C 322.833 64.342,323.115 63.971,323.458 63.584 C 324.273 62.668,325.333 60.951,325.333 60.549 C 325.333 60.376,325.404 60.162,325.491 60.075 C 325.765 59.801,326.167 57.968,326.164 57.007 C 326.149 52.307,323.420 48.817,319.167 48.060 C 316.954 47.667,314.902 47.635,313.417 47.972 M338.417 47.827 C 338.050 47.904,337.450 48.023,337.083 48.091 C 336.717 48.159,336.050 48.410,335.603 48.649 C 335.155 48.888,334.592 49.187,334.353 49.314 C 333.871 49.569,331.333 52.146,331.333 52.380 C 331.333 52.461,331.083 52.955,330.776 53.478 C 330.470 54.000,330.176 54.613,330.123 54.839 C 330.071 55.065,329.821 55.925,329.569 56.750 C 329.025 58.535,328.867 64.037,329.309 65.833 C 330.580 70.996,332.402 73.491,335.882 74.831 C 345.309 78.460,352.313 70.769,350.754 58.500 C 349.838 51.295,344.377 46.571,338.417 47.827 M362.250 47.777 C 359.189 48.285,356.927 49.785,354.949 52.619 C 354.448 53.337,353.500 55.268,353.500 55.571 C 353.500 55.693,354.918 56.500,355.132 56.500 C 355.235 56.500,355.678 56.710,356.118 56.967 C 356.978 57.470,358.815 58.251,358.893 58.147 C 358.919 58.112,359.073 57.727,359.234 57.292 C 359.396 56.856,359.587 56.500,359.660 56.500 C 359.733 56.500,359.892 56.256,360.013 55.958 C 360.619 54.466,362.783 52.889,363.947 53.091 C 367.462 53.699,368.065 57.325,365.299 61.220 C 363.384 63.918,358.724 68.807,355.417 71.589 C 353.438 73.253,353.333 73.389,353.333 74.305 L 353.333 75.167 363.917 75.167 L 374.500 75.167 374.500 72.336 L 374.500 69.505 369.792 69.461 L 365.083 69.417 365.684 69.000 C 366.740 68.268,368.036 67.125,369.537 65.601 C 370.801 64.318,371.347 63.611,372.830 61.333 C 373.828 59.802,374.184 56.974,373.690 54.500 C 373.464 53.364,372.866 51.833,372.649 51.833 C 372.580 51.833,372.473 51.676,372.412 51.485 C 371.997 50.179,369.332 48.494,367.000 48.063 C 365.605 47.806,363.017 47.650,362.250 47.777 M383.750 48.669 C 383.383 48.939,382.906 49.238,382.689 49.333 C 382.472 49.428,382.097 49.659,381.856 49.846 C 381.482 50.136,379.890 51.200,379.012 51.747 C 378.868 51.837,378.356 52.168,377.875 52.483 L 377.000 53.055 377.000 56.194 C 377.000 57.921,377.056 59.328,377.125 59.321 C 377.194 59.314,377.453 59.183,377.701 59.029 C 379.785 57.737,380.314 57.390,380.750 57.030 L 381.250 56.618 381.293 65.892 L 381.336 75.167 384.501 75.167 L 387.667 75.167 387.667 61.667 L 387.667 48.167 386.042 48.172 C 384.509 48.177,384.379 48.206,383.750 48.669 M341.453 53.682 C 345.575 55.966,345.705 67.458,341.633 69.597 C 339.285 70.830,336.671 69.037,335.905 65.667 C 334.679 60.270,336.054 54.850,339.000 53.474 C 339.533 53.224,340.825 53.334,341.453 53.682 M236.833 64.500 C 231.497 65.759,230.576 72.530,235.416 74.922 C 238.162 76.279,241.168 75.216,242.750 72.329 C 243.980 70.085,242.851 66.275,240.644 65.222 C 239.082 64.476,237.890 64.251,236.833 64.500 " stroke="none" fill="#FFFFFF" fill-rule="evenodd"></path><path id="path1" d="" stroke="none" fill="#FFFFFF" fill-rule="evenodd"></path><path id="path2" d="" stroke="none" fill="#FFFFFF" fill-rule="evenodd"></path><path id="path3" d="" stroke="none" fill="#FFFFFF" fill-rule="evenodd"></path><path id="path4" d="" stroke="none" fill="#FFFFFF" fill-rule="evenodd"></path></g></svg>