<svg id="svg" version="1.1" xmlns="http://www.w3.org/2000/svg" xmlns:xlink="http://www.w3.org/1999/xlink" width="400" height="129.03225806451613" viewBox="0, 0, 400,129.03225806451613"><g id="svgg"><path id="path0" d="M334.167 40.279 C 328.515 41.463,326.032 48.171,329.824 52.010 C 330.976 53.177,334.808 55.500,335.579 55.500 C 335.844 55.500,337.528 56.738,337.819 57.147 C 339.254 59.162,336.250 61.026,333.216 60.001 C 331.752 59.506,329.538 58.299,329.254 57.840 C 328.981 57.398,328.529 57.714,327.903 58.782 C 327.544 59.396,327.175 60.023,327.083 60.176 C 326.992 60.330,326.747 60.746,326.540 61.102 C 326.333 61.459,326.070 61.887,325.957 62.054 C 325.663 62.487,326.475 63.142,328.583 64.173 C 334.790 67.208,342.022 65.711,343.917 61.000 C 345.604 56.805,343.765 53.173,338.833 50.961 C 334.076 48.827,333.151 48.006,333.947 46.628 C 334.794 45.161,337.350 45.109,340.205 46.502 L 341.494 47.131 342.435 45.274 C 342.952 44.252,343.447 43.327,343.534 43.218 C 344.703 41.748,337.676 39.543,334.167 40.279 M310.679 41.125 C 310.419 41.861,309.184 44.927,308.076 47.583 C 307.961 47.858,307.666 48.608,307.419 49.250 C 307.172 49.892,306.827 50.735,306.652 51.123 C 306.477 51.512,306.333 51.872,306.333 51.924 C 306.333 51.976,306.193 52.333,306.023 52.717 C 305.852 53.102,305.057 55.067,304.258 57.083 C 303.458 59.100,302.702 60.977,302.578 61.254 C 302.455 61.532,302.121 62.357,301.838 63.088 C 301.554 63.819,301.249 64.547,301.161 64.706 C 301.072 64.865,301.000 65.034,301.000 65.081 C 301.000 65.128,302.416 65.167,304.146 65.167 L 307.293 65.167 307.499 64.625 C 307.724 64.035,308.108 62.998,308.702 61.377 L 309.083 60.338 313.606 60.336 L 318.128 60.333 318.481 61.250 C 318.942 62.449,319.424 63.763,319.688 64.542 L 319.900 65.167 323.123 65.167 L 326.345 65.167 326.150 64.803 C 326.043 64.602,325.335 62.896,324.576 61.011 C 323.818 59.126,322.486 55.821,321.616 53.667 C 320.747 51.512,319.690 48.887,319.267 47.833 C 318.845 46.779,318.397 45.692,318.273 45.417 C 318.148 45.142,317.875 44.467,317.665 43.917 C 317.456 43.367,317.060 42.373,316.786 41.708 L 316.287 40.500 313.594 40.500 L 310.900 40.500 310.679 41.125 M347.500 52.833 L 347.500 65.167 350.417 65.167 L 353.333 65.167 353.333 52.833 L 353.333 40.500 350.417 40.500 L 347.500 40.500 347.500 52.833 M364.448 40.621 C 364.406 40.692,363.944 41.837,363.421 43.167 C 362.898 44.496,362.370 45.808,362.248 46.083 C 362.126 46.358,361.300 48.383,360.414 50.583 C 359.527 52.783,358.164 56.158,357.384 58.083 C 356.605 60.008,355.644 62.391,355.249 63.379 L 354.531 65.174 357.702 65.129 L 360.874 65.083 361.536 63.333 C 361.900 62.371,362.281 61.302,362.383 60.958 L 362.569 60.333 367.116 60.333 L 371.662 60.333 371.929 60.958 C 372.076 61.302,372.296 61.883,372.417 62.250 C 372.539 62.617,372.820 63.404,373.043 64.000 L 373.448 65.083 376.633 65.129 L 379.817 65.174 378.652 62.295 C 378.012 60.712,377.421 59.267,377.339 59.083 C 377.029 58.389,375.986 55.809,374.340 51.667 C 373.370 49.226,371.939 45.678,371.751 45.250 C 371.450 44.565,370.521 42.247,370.181 41.333 L 369.901 40.583 367.213 40.538 C 365.734 40.512,364.490 40.550,364.448 40.621 M313.934 49.378 C 314.047 49.674,314.326 50.404,314.554 51.000 C 314.782 51.596,315.131 52.496,315.329 53.000 C 315.527 53.504,315.794 54.198,315.921 54.542 L 316.152 55.167 313.659 55.167 C 312.288 55.167,311.167 55.119,311.167 55.060 C 311.167 55.001,311.517 54.045,311.946 52.935 C 312.854 50.583,313.311 49.369,313.446 48.952 C 313.564 48.588,313.667 48.678,313.934 49.378 M367.997 50.750 C 368.771 52.681,369.343 54.183,369.503 54.708 L 369.643 55.167 367.155 55.167 C 365.786 55.167,364.667 55.146,364.667 55.120 C 364.667 55.094,365.049 54.101,365.516 52.912 C 365.983 51.723,366.465 50.435,366.588 50.051 C 366.711 49.666,366.905 49.179,367.018 48.967 L 367.225 48.583 367.343 49.000 C 367.409 49.229,367.703 50.017,367.997 50.750 M310.554 68.164 C 307.330 68.849,304.909 70.828,303.219 74.159 C 302.615 75.349,302.612 75.345,305.080 76.560 C 307.758 77.879,307.572 77.859,308.015 76.875 C 309.301 74.025,311.065 72.705,312.883 73.233 C 315.016 73.853,315.827 76.141,314.762 78.535 C 313.614 81.117,309.117 86.121,304.167 90.325 C 302.637 91.625,302.672 91.572,302.669 92.542 L 302.667 93.333 312.333 93.333 L 322.000 93.333 322.000 90.750 L 322.000 88.167 317.542 88.154 C 315.090 88.146,313.196 88.098,313.333 88.047 C 313.660 87.924,316.013 85.941,317.110 84.864 C 321.622 80.434,322.693 76.085,320.308 71.880 C 318.822 69.260,314.013 67.428,310.554 68.164 M333.083 68.109 C 327.423 69.009,324.285 73.617,324.308 80.993 C 324.321 84.978,324.711 86.677,326.276 89.559 C 327.059 90.999,329.128 92.543,331.214 93.243 C 333.645 94.059,338.000 93.623,339.317 92.432 C 339.478 92.286,339.679 92.166,339.763 92.166 C 339.937 92.165,340.653 91.508,341.463 90.606 C 344.739 86.961,345.364 78.841,342.780 73.500 C 341.016 69.855,336.809 67.516,333.083 68.109 M354.417 68.160 C 351.877 68.709,350.088 69.875,348.512 72.006 C 347.636 73.192,346.523 75.250,346.679 75.397 C 346.875 75.581,351.222 77.667,351.411 77.667 C 351.532 77.667,351.757 77.351,351.911 76.965 C 353.522 72.939,357.168 71.751,358.712 74.750 C 359.770 76.806,358.859 79.215,355.588 83.000 C 354.124 84.696,348.529 90.095,346.950 91.337 C 346.541 91.659,346.489 91.799,346.533 92.477 L 346.583 93.250 356.250 93.250 L 365.917 93.250 365.917 90.750 L 365.917 88.250 361.522 88.206 L 357.128 88.161 357.754 87.664 C 358.098 87.390,358.437 87.167,358.508 87.167 C 358.831 87.167,363.007 82.802,363.690 81.750 C 366.591 77.283,365.716 71.757,361.743 69.444 C 359.998 68.428,356.229 67.768,354.417 68.160 M374.404 69.027 C 373.952 69.317,372.758 70.091,371.750 70.748 C 370.742 71.404,369.523 72.188,369.042 72.488 L 368.167 73.035 368.167 75.934 C 368.167 77.529,368.208 78.833,368.259 78.833 C 368.344 78.833,369.770 77.934,371.457 76.815 L 372.164 76.347 372.207 84.798 L 372.250 93.250 375.125 93.296 L 378.000 93.341 378.000 80.921 L 378.000 68.500 376.612 68.500 C 375.338 68.500,375.156 68.543,374.404 69.027 M336.070 73.843 C 339.446 76.130,339.184 86.805,335.715 88.254 C 334.438 88.787,332.878 88.480,331.881 87.499 C 328.907 84.573,329.888 74.154,333.204 73.443 C 334.117 73.247,335.469 73.436,336.070 73.843 " stroke="none" fill="#5c2454" fill-rule="evenodd"></path><path id="path1" d="M238.281 40.782 C 232.781 43.738,235.996 51.983,241.933 50.149 C 245.634 49.006,246.718 44.289,243.887 41.644 C 242.412 40.266,239.946 39.887,238.281 40.782 M225.000 45.748 C 224.037 45.863,222.912 46.070,222.500 46.210 C 222.088 46.349,221.525 46.515,221.250 46.578 C 220.779 46.686,220.478 46.804,218.960 47.475 C 218.290 47.771,218.187 48.005,218.583 48.333 C 218.721 48.447,218.833 48.651,218.833 48.786 C 218.833 48.921,218.971 49.231,219.140 49.474 C 219.308 49.718,219.500 50.029,219.566 50.167 C 219.632 50.304,219.899 50.792,220.161 51.250 C 220.422 51.708,220.770 52.346,220.934 52.667 C 221.098 52.987,221.274 53.288,221.325 53.333 C 221.375 53.379,221.502 53.567,221.605 53.750 C 221.819 54.127,222.116 54.114,223.083 53.685 C 224.730 52.954,228.645 52.634,230.500 53.078 C 230.729 53.132,231.269 53.247,231.699 53.333 C 232.499 53.491,235.240 54.735,235.637 55.120 C 235.758 55.237,235.909 55.333,235.972 55.333 C 236.035 55.333,236.273 55.502,236.502 55.709 C 236.730 55.915,237.165 56.289,237.469 56.540 C 239.505 58.222,241.165 61.200,241.812 64.333 L 242.104 65.750 245.677 65.750 L 249.250 65.750 249.301 64.958 C 249.345 64.264,249.078 62.854,248.473 60.585 C 248.376 60.219,248.192 59.771,248.065 59.589 C 247.937 59.408,247.833 59.145,247.832 59.005 C 247.831 58.699,246.411 55.862,246.072 55.488 C 245.941 55.343,245.833 55.169,245.833 55.102 C 245.833 54.887,244.144 52.813,243.340 52.040 C 243.051 51.763,242.829 51.681,242.590 51.762 C 240.395 52.513,235.390 51.100,235.340 49.717 C 235.337 49.607,235.233 49.457,235.111 49.383 C 234.787 49.188,234.042 47.679,233.927 46.984 C 233.729 45.785,229.553 45.207,225.000 45.748 M214.558 50.228 C 213.023 51.474,210.500 54.096,210.500 54.446 C 210.500 54.507,210.371 54.699,210.214 54.873 C 209.741 55.395,208.854 57.006,207.986 58.917 C 207.764 59.406,207.167 61.344,207.167 61.576 C 207.167 61.686,207.363 61.957,207.603 62.179 C 210.183 64.566,210.306 68.808,207.873 71.513 L 207.121 72.349 207.423 73.463 C 207.589 74.076,207.849 74.841,208.001 75.163 C 208.154 75.486,208.456 76.125,208.673 76.583 C 209.941 79.256,212.692 82.532,215.158 84.301 C 216.155 85.017,216.161 85.014,217.009 83.564 C 217.416 82.866,217.881 82.079,218.042 81.814 C 219.310 79.723,219.833 78.808,219.833 78.682 C 219.833 78.621,219.627 78.449,219.375 78.299 C 218.104 77.542,216.118 75.078,215.090 72.981 C 212.381 67.460,213.983 60.197,218.778 56.261 C 220.035 55.228,220.042 55.369,218.630 53.192 C 218.472 52.949,218.172 52.459,217.963 52.102 C 217.754 51.746,217.508 51.334,217.415 51.186 C 217.323 51.038,217.030 50.523,216.764 50.042 C 216.157 48.944,216.139 48.946,214.558 50.228 M202.250 61.946 C 200.559 62.339,199.110 63.371,198.433 64.665 C 197.916 65.654,197.804 68.235,198.245 69.000 C 198.378 69.229,198.557 69.567,198.644 69.750 C 200.661 74.001,207.916 71.958,207.993 67.118 C 208.019 65.425,206.298 62.500,205.276 62.500 C 205.152 62.500,204.833 62.395,204.567 62.268 C 204.021 62.005,202.752 61.829,202.250 61.946 M242.082 68.250 C 242.058 68.342,241.949 68.942,241.838 69.583 C 241.241 73.051,239.176 76.345,236.250 78.497 C 235.374 79.141,232.709 80.498,232.314 80.502 C 232.187 80.503,231.608 80.653,231.027 80.835 C 228.823 81.526,225.064 81.214,222.683 80.143 C 221.826 79.758,221.802 79.773,221.046 81.167 C 220.773 81.671,220.378 82.383,220.169 82.750 C 219.959 83.117,219.524 83.904,219.202 84.500 C 218.879 85.096,218.533 85.719,218.433 85.884 C 218.229 86.220,218.435 86.396,219.500 86.796 C 223.743 88.387,227.343 88.840,231.012 88.245 C 231.876 88.105,232.826 87.952,233.123 87.905 C 233.687 87.815,234.000 87.434,234.000 86.837 C 234.000 86.054,236.036 83.167,236.588 83.167 C 236.701 83.167,236.881 83.060,236.989 82.931 C 237.609 82.183,240.440 81.680,241.765 82.082 C 242.889 82.422,242.868 82.428,243.687 81.565 C 244.088 81.143,244.534 80.674,244.677 80.523 C 245.386 79.778,247.833 75.599,247.833 75.134 C 247.833 75.050,247.986 74.647,248.172 74.238 C 248.359 73.828,248.577 73.176,248.658 72.788 C 248.738 72.401,248.922 71.558,249.066 70.917 C 249.385 69.493,249.411 68.349,249.125 68.253 C 248.650 68.092,242.122 68.090,242.082 68.250 M239.917 83.602 C 236.913 84.262,235.500 85.893,235.500 88.700 C 235.500 94.483,243.351 95.660,245.289 90.167 C 246.413 86.980,243.080 82.907,239.917 83.602 " stroke="none" fill="#ec5423" fill-rule="evenodd"></path><path id="path2" d="M79.417 34.521 C 78.958 34.603,77.646 34.823,76.500 35.011 C 75.354 35.198,73.723 35.475,72.875 35.625 L 71.333 35.899 71.333 63.613 L 71.333 91.327 71.792 91.422 C 72.044 91.474,72.775 91.663,73.417 91.842 C 74.058 92.021,74.732 92.167,74.914 92.167 C 75.095 92.167,76.145 92.351,77.247 92.577 C 83.901 93.941,91.408 93.635,95.417 91.837 C 95.783 91.673,96.327 91.445,96.625 91.332 C 96.923 91.219,97.167 91.060,97.167 90.980 C 97.167 90.899,97.275 90.833,97.408 90.833 C 98.055 90.833,102.167 87.377,102.167 86.833 C 102.167 86.742,102.232 86.667,102.311 86.667 C 102.555 86.667,103.521 85.167,104.297 83.583 C 107.551 76.946,107.308 65.673,103.799 60.474 C 103.634 60.231,103.500 59.984,103.500 59.926 C 103.500 59.632,101.479 57.099,100.834 56.584 C 100.604 56.401,100.258 56.082,100.064 55.875 C 99.870 55.669,99.627 55.500,99.523 55.500 C 99.418 55.500,99.333 55.439,99.333 55.364 C 99.333 55.065,96.426 53.643,94.823 53.157 C 92.239 52.375,86.483 52.308,84.333 53.034 C 83.829 53.205,83.239 53.382,83.021 53.429 C 82.804 53.476,82.354 53.650,82.021 53.817 C 81.689 53.983,81.210 54.169,80.958 54.230 L 80.500 54.340 80.500 44.337 C 80.500 38.835,80.444 34.342,80.375 34.353 C 80.306 34.364,79.875 34.440,79.417 34.521 M178.667 39.618 C 178.438 39.658,177.838 39.794,177.333 39.920 C 176.829 40.047,176.192 40.190,175.917 40.239 C 175.490 40.315,174.229 40.748,172.076 41.559 C 171.797 41.664,171.368 41.881,171.123 42.042 C 170.879 42.202,170.594 42.333,170.490 42.333 C 170.386 42.333,170.102 42.465,169.858 42.625 C 169.615 42.785,169.293 42.992,169.144 43.083 C 168.204 43.660,166.985 44.575,166.381 45.157 C 165.995 45.529,165.643 45.833,165.597 45.833 C 165.450 45.833,164.718 46.627,164.613 46.900 C 164.557 47.047,164.438 47.167,164.350 47.167 C 163.936 47.167,161.777 50.380,160.599 52.750 C 158.299 57.376,157.750 60.060,157.750 66.667 C 157.750 73.952,158.652 77.734,161.684 83.167 C 163.018 85.556,166.278 88.789,168.750 90.174 C 170.062 90.909,171.244 91.500,171.412 91.506 C 171.506 91.509,171.883 91.656,172.250 91.833 C 172.617 92.010,173.005 92.158,173.113 92.161 C 173.222 92.164,173.897 92.349,174.613 92.572 C 177.635 93.512,183.864 93.893,187.417 93.355 C 188.150 93.244,189.306 93.081,189.987 92.994 C 190.667 92.906,191.754 92.679,192.403 92.489 C 193.052 92.299,194.108 91.991,194.750 91.805 C 196.342 91.343,198.585 90.407,199.034 90.017 C 199.099 89.961,198.887 89.165,198.563 88.249 C 198.240 87.333,197.915 86.358,197.842 86.083 C 197.769 85.808,197.597 85.283,197.460 84.917 C 197.322 84.550,197.088 83.837,196.938 83.333 C 196.538 81.984,196.469 81.909,195.894 82.204 C 188.913 85.792,179.649 85.904,174.500 82.463 C 167.265 77.628,165.351 63.358,170.750 54.515 C 174.171 48.913,182.158 46.538,189.845 48.839 C 190.447 49.019,191.027 49.167,191.132 49.167 C 191.237 49.167,191.733 49.354,192.234 49.583 C 192.735 49.813,193.209 50.000,193.288 50.000 C 193.366 50.000,193.941 50.267,194.567 50.593 C 195.192 50.919,195.717 51.162,195.733 51.134 C 195.873 50.893,196.500 49.205,196.500 49.070 C 196.500 48.974,196.650 48.585,196.833 48.206 C 197.017 47.827,197.167 47.420,197.167 47.303 C 197.167 47.092,197.507 46.161,198.272 44.281 C 198.489 43.748,198.667 43.284,198.667 43.252 C 198.667 43.189,196.174 41.970,194.787 41.354 C 194.349 41.159,193.878 41.000,193.740 41.000 C 193.602 41.000,193.053 40.853,192.521 40.674 C 191.988 40.494,191.296 40.303,190.984 40.249 C 190.672 40.196,189.692 40.005,188.807 39.826 C 187.275 39.516,180.101 39.369,178.667 39.618 M27.383 65.708 C 27.479 82.320,27.773 84.178,30.929 88.171 C 31.676 89.117,32.067 89.504,33.328 90.547 C 33.463 90.659,33.725 90.830,33.912 90.929 C 34.243 91.104,34.405 91.188,35.417 91.711 C 38.259 93.180,42.941 93.640,49.500 93.095 C 52.059 92.882,53.622 92.634,57.417 91.836 C 58.242 91.663,59.198 91.476,59.542 91.420 L 60.167 91.318 60.167 72.326 L 60.167 53.333 55.417 53.333 L 50.667 53.333 50.667 69.066 L 50.667 84.799 49.208 85.018 C 41.936 86.108,38.594 84.524,37.216 79.333 L 36.796 77.750 36.712 65.542 L 36.629 53.333 31.970 53.333 L 27.311 53.333 27.383 65.708 M115.333 66.182 C 115.333 79.831,115.290 78.833,116.050 82.667 C 116.260 83.728,117.375 86.390,117.783 86.804 C 117.902 86.925,118.000 87.084,118.000 87.157 C 118.000 87.330,119.649 89.400,119.843 89.471 C 119.925 89.501,120.232 89.749,120.525 90.023 C 120.818 90.297,121.289 90.640,121.571 90.784 C 121.853 90.928,122.121 91.100,122.167 91.166 C 122.282 91.331,123.684 91.941,125.083 92.433 C 127.557 93.304,131.935 93.541,137.349 93.096 C 139.920 92.885,141.425 92.645,145.250 91.835 C 146.075 91.660,146.994 91.470,147.292 91.412 L 147.833 91.307 147.833 72.320 L 147.833 53.333 143.250 53.333 L 138.667 53.333 138.667 68.989 C 138.667 83.755,138.650 84.649,138.375 84.729 C 133.194 86.244,127.554 85.035,126.038 82.083 C 124.649 79.382,124.614 78.980,124.545 65.292 L 124.486 53.333 119.909 53.333 L 115.333 53.333 115.333 66.182 M270.500 53.603 C 270.271 53.635,269.033 53.780,267.750 53.927 C 265.343 54.201,263.218 54.579,260.542 55.207 L 259.000 55.570 259.000 74.535 L 259.000 93.500 263.667 93.500 L 268.333 93.500 268.333 77.777 L 268.333 62.054 269.708 61.864 C 273.754 61.307,276.958 61.471,278.640 62.320 C 279.625 62.817,281.333 64.491,281.333 64.958 C 281.333 65.082,281.449 65.407,281.590 65.680 C 282.454 67.351,282.559 68.957,282.626 81.625 L 282.689 93.500 287.275 93.500 L 291.862 93.500 291.785 80.208 C 291.718 68.632,291.673 66.777,291.435 65.833 C 291.286 65.237,291.095 64.373,291.013 63.911 C 290.558 61.374,288.540 58.142,286.458 56.617 C 282.975 54.068,276.283 52.804,270.500 53.603 M90.705 60.821 C 92.489 61.334,94.491 62.874,95.201 64.280 C 95.332 64.538,95.518 64.900,95.616 65.083 C 97.600 68.820,97.603 76.329,95.623 79.917 C 95.521 80.100,95.325 80.475,95.187 80.750 C 93.266 84.565,87.086 86.352,81.125 84.815 L 80.500 84.654 80.500 73.597 L 80.500 62.540 81.792 61.922 C 83.574 61.069,84.356 60.821,86.500 60.432 C 87.294 60.288,89.589 60.501,90.705 60.821 M344.387 80.833 C 344.387 81.429,344.417 81.673,344.454 81.375 C 344.491 81.077,344.491 80.590,344.454 80.292 C 344.417 79.994,344.387 80.237,344.387 80.833 " stroke="none" fill="#343434" fill-rule="evenodd"></path><path id="path3" d="" stroke="none" fill="#743c58" fill-rule="evenodd"></path><path id="path4" d="" stroke="none" fill="#443c48" fill-rule="evenodd"></path></g></svg>