<svg id="svg" version="1.1" xmlns="http://www.w3.org/2000/svg" xmlns:xlink="http://www.w3.org/1999/xlink" width="400" height="266.6666666666667" viewBox="0, 0, 400,266.6666666666667"><g id="svgg"><path id="path0" d="M137.294 32.510 C 136.613 32.776,135.893 33.133,135.694 33.302 C 135.496 33.471,134.853 33.947,134.267 34.359 C 127.290 39.264,129.618 52.236,137.839 54.263 C 138.808 54.502,139.969 54.810,140.419 54.949 C 141.486 55.276,142.592 55.269,142.800 54.933 C 142.891 54.787,143.262 54.667,143.624 54.667 C 144.648 54.667,147.491 53.626,148.230 52.981 C 150.991 50.568,152.294 48.730,152.708 46.661 C 152.796 46.218,152.973 45.791,153.101 45.712 C 153.965 45.178,153.124 40.145,151.746 37.600 C 149.233 32.958,142.347 30.533,137.294 32.510 M243.133 42.712 C 242.437 42.866,241.867 43.098,241.867 43.229 C 241.867 43.360,241.702 43.467,241.500 43.467 C 240.911 43.467,238.133 44.769,238.133 45.045 C 238.133 45.184,237.901 45.371,237.617 45.461 C 236.963 45.669,234.133 48.308,234.133 48.710 C 234.133 48.875,233.832 49.293,233.464 49.639 C 232.354 50.680,231.170 54.839,231.179 57.667 C 231.185 59.879,231.260 60.533,231.505 60.533 C 231.631 60.533,231.733 60.770,231.733 61.059 C 231.733 63.507,236.543 69.140,239.533 70.194 C 239.937 70.336,240.267 70.541,240.267 70.650 C 240.267 70.759,241.137 71.194,242.200 71.616 C 243.263 72.038,244.193 72.464,244.267 72.562 C 244.340 72.660,245.153 73.056,246.073 73.443 C 246.992 73.829,247.982 74.382,248.273 74.673 C 248.563 74.963,248.965 75.200,249.166 75.200 C 251.359 75.200,252.484 79.902,250.692 81.577 C 250.238 82.001,249.865 82.269,249.863 82.174 C 249.860 82.078,249.770 82.130,249.663 82.290 C 248.823 83.531,241.841 83.476,240.581 82.219 C 240.387 82.025,240.099 81.867,239.940 81.867 C 239.472 81.867,236.811 80.542,236.294 80.052 C 236.031 79.803,235.468 79.394,235.042 79.143 C 234.615 78.892,233.942 78.423,233.546 78.100 C 232.723 77.431,232.175 77.666,231.888 78.811 C 231.797 79.172,231.615 79.467,231.484 79.467 C 231.352 79.467,230.852 80.277,230.372 81.267 C 229.892 82.257,229.358 83.187,229.184 83.333 C 229.011 83.480,228.584 84.200,228.235 84.933 C 227.886 85.667,227.509 86.307,227.397 86.357 C 226.283 86.850,227.859 89.598,229.256 89.600 C 229.434 89.600,229.794 89.829,230.056 90.110 C 230.319 90.390,231.373 90.958,232.400 91.372 C 233.427 91.786,234.327 92.198,234.400 92.287 C 234.678 92.623,237.174 93.322,239.213 93.634 C 240.379 93.813,241.333 94.058,241.333 94.179 C 241.333 94.301,243.373 94.400,245.867 94.400 C 248.360 94.400,250.400 94.304,250.400 94.188 C 250.400 94.071,251.210 93.833,252.200 93.659 C 254.563 93.244,255.902 92.854,256.331 92.457 C 256.523 92.279,257.277 91.837,258.007 91.474 C 259.255 90.854,261.275 88.995,262.581 87.264 C 263.387 86.197,264.261 83.472,264.451 81.437 C 264.539 80.500,264.713 79.733,264.839 79.733 C 264.964 79.733,265.067 79.133,265.067 78.400 C 265.067 77.667,264.947 77.067,264.800 77.067 C 264.653 77.067,264.533 76.703,264.533 76.258 C 264.533 73.522,261.363 68.737,258.600 67.301 C 258.197 67.091,257.867 66.825,257.867 66.709 C 257.867 66.593,257.117 66.146,256.200 65.716 C 255.283 65.285,254.493 64.843,254.444 64.732 C 254.395 64.621,254.245 64.598,254.111 64.681 C 253.976 64.764,253.867 64.720,253.867 64.585 C 253.867 64.449,252.967 64.010,251.867 63.609 C 250.767 63.207,249.867 62.771,249.867 62.640 C 249.867 62.508,249.692 62.400,249.479 62.400 C 248.967 62.400,245.600 60.787,245.600 60.542 C 245.600 60.438,245.304 60.217,244.942 60.052 C 243.305 59.307,242.190 56.412,243.266 55.703 C 243.403 55.613,243.656 55.255,243.829 54.909 C 244.783 52.995,253.842 52.992,255.200 54.905 C 255.483 55.304,258.408 56.514,258.761 56.378 C 258.966 56.299,259.471 55.432,259.884 54.451 C 260.296 53.470,260.724 52.604,260.833 52.528 C 260.943 52.452,261.264 51.852,261.546 51.195 C 261.827 50.538,262.375 49.533,262.762 48.963 C 263.898 47.290,263.746 46.847,261.733 45.970 C 260.780 45.554,260.000 45.125,260.000 45.016 C 260.000 44.907,258.950 44.495,257.667 44.101 C 256.383 43.708,255.209 43.291,255.058 43.175 C 254.906 43.059,254.546 43.000,254.258 43.044 C 253.969 43.088,253.650 42.995,253.547 42.836 C 253.297 42.447,244.797 42.346,243.133 42.712 M196.510 43.661 C 196.358 44.062,196.150 44.452,196.047 44.528 C 195.945 44.604,195.515 45.687,195.092 46.933 C 194.668 48.180,194.233 49.260,194.125 49.333 C 194.017 49.407,193.592 50.427,193.182 51.600 C 192.771 52.773,192.290 53.973,192.113 54.267 C 191.936 54.560,191.458 55.760,191.051 56.933 C 190.645 58.107,190.223 59.127,190.115 59.200 C 190.006 59.274,189.590 60.324,189.190 61.534 C 188.790 62.743,188.370 63.733,188.256 63.733 C 188.143 63.733,188.113 63.973,188.189 64.267 C 188.266 64.560,188.204 64.800,188.052 64.800 C 187.899 64.800,187.630 65.250,187.453 65.800 C 187.275 66.350,186.802 67.520,186.401 68.400 C 185.999 69.280,185.405 70.779,185.080 71.731 C 184.755 72.683,184.407 73.523,184.306 73.598 C 184.206 73.672,183.840 74.573,183.493 75.600 C 183.146 76.627,182.694 77.740,182.487 78.074 C 182.280 78.408,182.183 78.798,182.271 78.941 C 182.359 79.083,182.314 79.200,182.171 79.200 C 182.028 79.200,181.650 80.042,181.332 81.071 C 181.013 82.100,180.612 83.090,180.440 83.271 C 180.268 83.452,179.837 84.440,179.482 85.467 C 179.126 86.493,178.577 87.873,178.262 88.533 C 177.946 89.193,177.463 90.423,177.189 91.267 C 176.914 92.110,176.594 92.800,176.478 92.800 C 176.362 92.800,176.267 92.922,176.267 93.071 C 176.267 93.250,178.517 93.318,182.850 93.271 L 189.433 93.200 189.675 92.267 C 189.808 91.754,190.011 91.274,190.126 91.200 C 190.241 91.127,190.729 89.807,191.210 88.267 C 191.691 86.727,192.190 85.396,192.320 85.311 C 192.450 85.225,192.649 84.805,192.764 84.377 L 192.972 83.600 202.149 83.600 C 211.115 83.600,211.328 83.612,211.427 84.133 C 211.483 84.427,211.616 84.727,211.724 84.800 C 211.831 84.873,212.251 85.983,212.658 87.267 C 213.064 88.550,213.479 89.600,213.581 89.600 C 213.683 89.600,213.924 90.230,214.118 91.000 C 214.755 93.537,214.124 93.333,221.343 93.333 C 227.556 93.333,227.733 93.318,227.733 92.800 C 227.733 92.507,227.642 92.267,227.530 92.267 C 227.418 92.267,226.974 91.217,226.543 89.933 C 226.112 88.650,225.673 87.539,225.567 87.464 C 225.388 87.337,225.184 86.822,224.096 83.747 C 223.865 83.095,223.525 82.315,223.340 82.014 C 223.155 81.713,222.720 80.627,222.374 79.600 C 222.027 78.573,221.661 77.672,221.560 77.597 C 221.459 77.523,221.047 76.503,220.645 75.331 C 220.244 74.159,219.834 73.140,219.734 73.067 C 219.635 72.993,219.155 71.793,218.667 70.400 C 218.179 69.007,217.689 67.806,217.578 67.731 C 217.467 67.656,217.047 66.636,216.645 65.464 C 216.244 64.292,215.834 63.273,215.734 63.200 C 215.635 63.127,215.155 61.927,214.667 60.533 C 214.179 59.140,213.697 57.940,213.596 57.867 C 213.495 57.793,213.085 56.743,212.684 55.533 C 212.284 54.323,211.860 53.333,211.743 53.333 C 211.625 53.333,211.464 53.063,211.386 52.733 C 211.125 51.640,210.010 48.669,209.804 48.518 C 209.692 48.436,209.248 47.325,208.816 46.048 C 207.697 42.737,208.126 42.933,202.012 42.933 L 196.787 42.933 196.510 43.661 M270.933 68.128 L 270.933 93.333 276.801 93.333 L 282.669 93.333 282.601 68.200 L 282.533 43.067 276.733 42.995 L 270.933 42.923 270.933 68.128 M304.937 43.899 C 304.715 44.430,304.533 45.004,304.533 45.173 C 304.533 45.343,304.347 45.748,304.118 46.074 C 303.890 46.400,303.773 46.667,303.858 46.667 C 303.943 46.667,303.845 46.937,303.641 47.267 C 303.437 47.597,302.987 48.707,302.640 49.733 C 302.294 50.760,301.926 51.662,301.824 51.737 C 301.722 51.813,301.317 52.833,300.924 54.004 C 300.532 55.175,300.121 56.193,300.011 56.267 C 299.787 56.417,298.102 60.750,298.067 61.267 C 298.055 61.450,297.961 61.600,297.859 61.600 C 297.758 61.600,297.340 62.590,296.931 63.800 C 296.522 65.010,296.102 66.060,295.996 66.133 C 295.891 66.207,295.418 67.406,294.945 68.799 C 294.472 70.192,293.994 71.392,293.882 71.466 C 293.770 71.540,293.466 72.260,293.206 73.067 C 292.947 73.873,292.524 74.893,292.267 75.333 C 292.009 75.773,291.454 77.153,291.033 78.400 C 290.611 79.647,290.184 80.704,290.083 80.750 C 289.982 80.796,289.574 81.816,289.177 83.017 C 288.779 84.218,288.360 85.262,288.246 85.337 C 288.132 85.413,287.719 86.433,287.328 87.604 C 286.937 88.775,286.398 90.093,286.131 90.533 C 285.864 90.973,285.561 91.783,285.459 92.333 L 285.274 93.333 291.504 93.329 C 298.749 93.325,298.079 93.573,299.049 90.533 C 299.470 89.213,299.896 88.073,299.994 88.000 C 300.092 87.927,300.476 86.907,300.848 85.733 L 301.523 83.600 310.786 83.600 L 320.048 83.600 320.609 85.333 C 320.917 86.287,321.281 87.143,321.419 87.237 C 321.556 87.330,321.586 87.540,321.485 87.704 C 321.384 87.867,321.404 88.000,321.529 88.000 C 321.654 88.000,322.100 89.110,322.520 90.467 C 323.483 93.575,322.818 93.324,330.100 93.329 L 336.333 93.333 336.164 92.487 C 336.071 92.021,335.705 91.028,335.351 90.279 C 334.996 89.530,334.440 88.141,334.114 87.192 C 333.788 86.243,333.437 85.407,333.334 85.333 C 333.230 85.260,332.821 84.218,332.423 83.017 C 332.026 81.816,331.613 80.796,331.506 80.750 C 331.399 80.704,331.112 80.067,330.868 79.333 C 330.012 76.766,329.557 75.605,329.352 75.470 C 329.239 75.395,328.821 74.351,328.423 73.150 C 328.026 71.949,327.618 70.929,327.517 70.883 C 327.416 70.838,326.986 69.780,326.561 68.533 C 326.136 67.287,325.704 66.207,325.600 66.133 C 325.497 66.060,325.073 64.998,324.659 63.772 C 324.245 62.547,323.777 61.407,323.619 61.239 C 323.461 61.071,322.984 59.913,322.560 58.667 C 322.136 57.420,321.699 56.340,321.589 56.267 C 321.479 56.193,321.068 55.175,320.676 54.004 C 320.283 52.833,319.878 51.813,319.776 51.737 C 319.674 51.662,319.304 50.760,318.955 49.733 C 318.606 48.707,318.090 47.387,317.808 46.800 C 317.526 46.213,317.056 45.103,316.762 44.333 L 316.228 42.933 310.784 42.933 L 305.340 42.933 304.937 43.899 M107.600 43.991 C 104.753 44.253,101.975 44.739,101.368 45.080 C 101.129 45.215,99.756 45.629,98.317 46.001 C 96.878 46.372,95.438 46.837,95.117 47.034 C 94.796 47.230,93.772 47.667,92.842 48.004 C 90.798 48.745,90.648 49.048,91.547 50.635 C 91.930 51.312,92.699 52.685,93.255 53.686 C 93.812 54.686,94.651 56.186,95.121 57.019 C 95.591 57.852,96.331 59.233,96.766 60.088 C 97.201 60.943,97.732 61.843,97.947 62.088 C 98.161 62.333,98.419 62.803,98.520 63.133 C 98.620 63.463,98.800 63.733,98.919 63.733 C 99.275 63.733,101.190 62.889,101.333 62.669 C 101.510 62.398,105.610 61.398,107.467 61.173 C 108.273 61.076,109.074 60.885,109.245 60.750 C 110.350 59.878,122.946 61.460,124.380 62.650 C 124.561 62.800,125.481 63.214,126.425 63.569 C 127.369 63.924,128.799 64.648,129.602 65.177 C 130.405 65.705,131.273 66.205,131.531 66.287 C 131.789 66.369,132.000 66.532,132.000 66.649 C 132.000 66.766,132.450 67.161,133.000 67.527 C 134.289 68.383,137.301 71.330,138.117 72.533 C 138.465 73.047,138.890 73.587,139.061 73.733 C 139.232 73.880,139.718 74.600,140.140 75.333 C 140.562 76.067,140.996 76.729,141.104 76.806 C 141.258 76.914,142.861 80.177,143.067 80.800 C 143.092 80.873,143.236 81.233,143.388 81.600 C 143.541 81.967,143.936 83.407,144.268 84.800 C 144.599 86.193,144.975 87.542,145.102 87.796 C 145.229 88.051,145.333 88.611,145.333 89.041 C 145.333 90.680,145.298 90.667,149.562 90.666 C 151.710 90.665,155.357 90.587,157.667 90.491 L 161.867 90.317 161.867 88.254 C 161.867 86.214,161.271 82.230,160.812 81.200 C 160.681 80.907,160.372 79.797,160.125 78.733 C 159.878 77.670,159.442 76.350,159.156 75.800 C 158.871 75.250,158.393 74.108,158.096 73.262 C 157.798 72.416,157.145 71.043,156.644 70.211 C 156.143 69.379,155.733 68.564,155.733 68.399 C 155.733 68.235,155.520 67.868,155.259 67.584 C 154.998 67.299,154.436 66.467,154.009 65.733 C 153.583 65.000,152.897 64.040,152.485 63.600 C 152.073 63.160,151.735 62.685,151.735 62.543 C 151.734 62.402,151.433 61.982,151.066 61.610 C 150.699 61.238,149.734 60.225,148.922 59.360 L 147.446 57.787 145.923 58.160 C 142.466 59.008,135.717 58.323,134.350 56.986 C 134.157 56.798,133.382 56.289,132.626 55.855 C 131.115 54.988,128.734 52.237,128.077 50.600 C 127.856 50.050,127.584 49.600,127.472 49.600 C 127.275 49.600,126.855 48.217,126.522 46.467 C 126.415 45.902,126.203 45.599,125.912 45.598 C 125.667 45.597,125.118 45.415,124.692 45.193 C 122.751 44.181,112.992 43.494,107.600 43.991 M84.859 52.467 C 84.599 52.723,83.850 53.284,83.196 53.712 C 82.542 54.141,81.669 54.801,81.256 55.179 C 79.554 56.740,75.282 61.048,74.600 61.892 C 72.459 64.540,70.845 66.980,69.632 69.402 C 69.208 70.246,68.731 71.096,68.570 71.290 C 68.409 71.483,67.965 72.473,67.582 73.488 C 67.200 74.503,66.786 75.456,66.662 75.606 C 66.338 75.996,65.333 79.728,65.333 80.541 C 65.333 80.985,65.699 81.582,66.378 82.246 C 67.856 83.689,69.200 85.755,69.775 87.467 C 70.045 88.273,70.327 88.993,70.400 89.067 C 71.007 89.674,70.918 95.710,70.275 97.467 C 69.561 99.419,68.688 101.333,68.511 101.333 C 68.397 101.333,68.230 101.561,68.142 101.840 C 68.053 102.119,67.385 102.952,66.657 103.692 C 65.828 104.534,65.333 105.271,65.333 105.662 C 65.333 106.625,66.067 109.222,66.772 110.754 C 67.120 111.513,67.623 112.733,67.889 113.467 C 68.155 114.200,68.443 114.860,68.529 114.933 C 68.615 115.007,69.096 115.877,69.597 116.867 C 70.099 117.857,70.597 118.667,70.703 118.667 C 70.810 118.667,70.981 118.937,71.083 119.267 C 71.256 119.827,73.538 123.034,74.831 124.533 C 77.534 127.667,78.194 128.392,78.600 128.677 C 78.857 128.857,79.607 129.507,80.267 130.121 C 82.039 131.771,85.213 134.133,85.657 134.133 C 85.869 134.133,86.454 133.405,86.955 132.515 C 87.456 131.625,87.994 130.755,88.149 130.582 C 88.305 130.408,88.785 129.607,89.216 128.800 C 89.647 127.993,90.072 127.273,90.160 127.200 C 90.248 127.127,90.714 126.347,91.194 125.467 C 91.675 124.587,92.219 123.687,92.403 123.467 C 92.587 123.247,92.993 122.587,93.305 122.000 C 93.617 121.413,94.017 120.729,94.193 120.480 C 94.500 120.046,93.388 118.668,92.729 118.667 C 92.475 118.667,87.468 113.648,87.462 113.388 C 87.460 113.285,87.087 112.780,86.634 112.267 C 86.181 111.753,85.525 110.772,85.177 110.086 C 84.829 109.399,84.443 108.776,84.320 108.699 C 84.197 108.623,83.748 107.685,83.323 106.614 C 82.897 105.543,82.475 104.607,82.384 104.533 C 80.137 102.727,80.144 84.452,82.392 81.743 C 82.518 81.591,82.936 80.631,83.320 79.610 C 83.704 78.589,84.113 77.689,84.227 77.610 C 84.342 77.531,84.830 76.771,85.311 75.920 C 85.793 75.069,86.535 73.993,86.961 73.527 C 87.386 73.062,87.733 72.583,87.733 72.462 C 87.733 72.186,90.232 69.739,92.219 68.070 C 94.538 66.120,94.780 65.813,94.200 65.556 C 94.090 65.507,93.293 64.267,92.430 62.800 C 91.566 61.333,90.649 59.825,90.391 59.449 C 90.134 59.072,89.602 58.150,89.209 57.399 C 88.816 56.648,88.324 55.891,88.114 55.717 C 87.905 55.544,87.733 55.285,87.733 55.142 C 87.733 54.636,86.003 52.000,85.671 52.000 C 85.485 52.000,85.120 52.210,84.859 52.467 M311.678 62.116 C 311.797 62.199,312.244 63.347,312.673 64.667 C 313.101 65.987,313.539 67.130,313.645 67.207 C 313.752 67.284,314.157 68.334,314.546 69.540 C 314.935 70.747,315.369 71.733,315.509 71.733 C 315.650 71.733,315.687 71.859,315.593 72.012 C 315.498 72.165,315.566 72.465,315.743 72.678 C 316.023 73.016,315.380 73.067,310.800 73.067 C 306.622 73.067,305.590 72.998,305.804 72.733 C 305.953 72.550,306.413 71.380,306.827 70.133 C 307.242 68.887,307.654 67.807,307.744 67.733 C 307.834 67.660,308.314 66.400,308.811 64.933 C 309.307 63.467,309.795 62.207,309.894 62.133 C 309.993 62.060,310.234 61.466,310.429 60.812 L 310.784 59.625 311.123 60.795 C 311.309 61.439,311.559 62.033,311.678 62.116 M202.950 61.933 C 203.277 62.997,203.677 63.955,203.839 64.063 C 204.009 64.176,204.021 64.262,203.867 64.267 C 203.695 64.272,203.698 64.345,203.874 64.471 C 204.025 64.579,204.499 65.747,204.927 67.067 C 205.356 68.387,205.798 69.531,205.909 69.609 C 206.021 69.688,206.345 70.498,206.628 71.409 L 207.144 73.067 202.120 73.067 L 197.095 73.067 197.510 71.667 C 197.738 70.897,198.014 70.207,198.123 70.133 C 198.232 70.060,198.656 68.980,199.067 67.733 C 199.477 66.487,199.897 65.407,200.000 65.333 C 200.103 65.260,200.521 64.180,200.929 62.933 C 201.581 60.943,202.014 60.000,202.277 60.000 C 202.320 60.000,202.623 60.870,202.950 61.933 M53.395 81.605 C 52.622 81.717,51.842 81.932,51.662 82.082 C 51.481 82.232,51.213 82.378,51.067 82.406 C 49.608 82.686,46.886 84.848,45.886 86.518 C 45.531 87.113,45.155 87.660,45.051 87.733 C 44.081 88.420,43.607 94.831,44.368 96.966 C 45.854 101.136,50.223 104.465,54.564 104.736 C 56.578 104.861,59.395 104.466,59.733 104.010 C 59.807 103.911,60.420 103.565,61.097 103.242 C 62.826 102.416,65.392 99.663,65.983 98.000 C 66.243 97.267,66.594 96.378,66.762 96.026 C 67.156 95.196,67.162 90.601,66.769 90.108 C 66.605 89.902,66.257 89.073,65.997 88.267 C 65.421 86.486,62.234 83.115,60.835 82.808 C 60.376 82.707,60.000 82.494,60.000 82.334 C 60.000 82.175,59.921 82.123,59.825 82.220 C 59.728 82.316,59.514 82.283,59.349 82.146 C 59.045 81.894,55.936 81.311,55.200 81.369 C 54.980 81.386,54.168 81.492,53.395 81.605 M145.508 95.855 C 145.412 96.105,145.333 96.780,145.333 97.355 C 145.333 97.930,145.213 98.400,145.067 98.400 C 144.920 98.400,144.800 98.670,144.800 99.000 C 144.799 101.526,140.744 111.213,139.253 112.251 C 139.135 112.333,138.685 112.873,138.253 113.450 C 137.160 114.910,134.199 117.872,133.071 118.632 C 132.555 118.980,132.037 119.430,131.920 119.632 C 131.803 119.835,131.595 120.000,131.459 120.000 C 131.322 120.000,130.549 120.423,129.741 120.940 C 128.933 121.457,127.521 122.201,126.603 122.594 C 125.685 122.987,124.873 123.381,124.800 123.469 C 124.598 123.711,120.427 124.804,117.867 125.285 C 115.167 125.792,110.939 125.835,108.533 125.381 C 105.931 124.889,101.218 123.680,101.067 123.464 C 100.891 123.216,98.968 122.530,98.872 122.682 C 98.832 122.747,98.553 123.160,98.254 123.600 C 97.954 124.040,97.355 125.120,96.922 126.000 C 96.489 126.880,95.975 127.768,95.780 127.974 C 95.584 128.179,95.129 129.015,94.768 129.831 C 94.407 130.647,94.012 131.379,93.891 131.458 C 93.769 131.536,93.338 132.258,92.932 133.063 C 92.526 133.868,91.910 134.975,91.564 135.524 C 90.467 137.261,90.959 137.832,94.400 138.815 C 94.767 138.919,95.127 139.088,95.200 139.190 C 95.324 139.361,97.821 140.164,101.333 141.162 C 108.214 143.117,125.546 142.406,126.405 140.133 C 126.516 139.840,126.757 138.947,126.941 138.148 C 127.125 137.350,127.387 136.570,127.522 136.415 C 127.657 136.260,128.090 135.566,128.484 134.872 C 129.337 133.368,132.053 130.522,133.190 129.940 C 133.636 129.712,134.060 129.438,134.133 129.332 C 134.347 129.021,138.292 127.733,139.029 127.733 C 139.399 127.733,139.776 127.613,139.867 127.467 C 140.069 127.139,142.766 127.113,143.404 127.432 C 143.658 127.560,144.634 127.844,145.571 128.065 L 147.276 128.465 148.771 126.935 C 151.712 123.928,153.422 121.684,155.464 118.154 C 157.039 115.432,157.594 114.321,158.142 112.800 C 158.485 111.847,158.851 111.007,158.955 110.933 C 159.211 110.753,160.533 106.373,160.533 105.706 C 160.533 105.413,160.645 105.059,160.782 104.920 C 161.184 104.510,161.865 100.038,161.866 97.800 L 161.867 95.733 155.372 95.733 C 151.801 95.733,148.159 95.658,147.281 95.566 C 145.924 95.425,145.657 95.468,145.508 95.855 M194.134 99.493 C 193.475 99.622,192.895 99.849,192.845 99.997 C 192.796 100.145,192.600 100.267,192.411 100.267 C 191.838 100.267,189.067 101.575,189.067 101.845 C 189.067 101.984,188.797 102.182,188.467 102.286 C 187.749 102.511,183.200 107.062,183.200 107.555 C 183.200 107.744,182.954 108.163,182.654 108.485 C 182.066 109.116,180.534 112.186,180.534 112.733 C 180.533 112.917,180.413 113.067,180.267 113.067 C 179.216 113.067,180.127 114.326,181.600 114.911 C 182.480 115.261,183.200 115.647,183.200 115.768 C 183.200 115.890,183.530 116.072,183.933 116.173 C 184.887 116.412,187.029 117.352,187.200 117.608 C 187.391 117.893,189.318 118.667,189.833 118.665 C 190.122 118.664,190.486 118.082,190.922 116.922 C 191.283 115.965,191.767 114.975,191.997 114.724 C 192.228 114.472,192.676 113.847,192.992 113.333 C 195.646 109.023,199.582 108.157,203.246 111.077 C 205.476 112.854,205.926 117.890,204.128 120.933 C 203.781 121.520,203.188 122.570,202.811 123.267 C 202.433 123.963,202.009 124.533,201.869 124.533 C 201.729 124.533,201.429 124.891,201.202 125.329 C 200.976 125.766,200.463 126.483,200.062 126.921 C 199.661 127.359,198.673 128.512,197.867 129.481 C 196.180 131.508,186.455 141.333,186.135 141.333 C 186.018 141.333,185.578 141.723,185.157 142.200 C 184.736 142.677,183.853 143.483,183.196 143.993 C 182.538 144.502,181.909 145.063,181.798 145.239 C 181.687 145.415,181.177 145.818,180.665 146.134 C 179.746 146.702,179.733 146.735,179.733 148.555 L 179.733 150.400 199.333 150.400 L 218.933 150.400 218.933 145.067 L 218.933 139.733 210.371 139.733 L 201.808 139.733 202.837 138.806 C 203.403 138.296,204.003 137.876,204.169 137.873 C 204.336 137.869,204.669 137.567,204.909 137.200 C 205.149 136.833,205.482 136.533,205.649 136.533 C 205.949 136.533,207.911 134.722,209.818 132.685 C 210.358 132.108,211.250 131.205,211.800 130.679 C 212.350 130.152,212.800 129.604,212.800 129.460 C 212.800 129.316,213.130 128.883,213.533 128.497 C 213.937 128.111,214.567 127.212,214.933 126.498 C 215.300 125.785,215.744 125.081,215.920 124.934 C 216.095 124.787,216.496 123.947,216.810 123.067 C 217.123 122.187,217.562 121.062,217.785 120.567 C 218.276 119.476,218.204 112.067,217.697 111.440 C 217.531 111.235,217.309 110.664,217.203 110.172 C 216.996 109.201,216.033 106.882,215.748 106.667 C 215.651 106.593,215.301 106.087,214.969 105.541 C 214.288 104.420,212.106 102.400,211.576 102.400 C 211.384 102.400,211.131 102.237,211.013 102.037 C 210.752 101.592,208.576 100.616,207.322 100.380 C 206.815 100.285,206.400 100.115,206.400 100.003 C 206.400 99.339,196.929 98.946,194.134 99.493 M239.133 99.527 C 238.437 99.672,237.867 99.898,237.867 100.029 C 237.867 100.160,237.702 100.267,237.500 100.267 C 236.883 100.267,234.014 101.625,233.787 102.025 C 233.669 102.231,233.420 102.400,233.232 102.400 C 232.784 102.400,229.600 105.286,229.600 105.692 C 229.600 105.864,229.364 106.153,229.075 106.333 C 228.786 106.513,228.350 107.052,228.105 107.530 C 227.859 108.009,227.567 108.460,227.455 108.533 C 227.184 108.711,225.867 111.706,225.867 112.144 C 225.867 112.334,225.743 112.530,225.591 112.581 C 223.295 113.346,223.296 137.588,225.593 138.353 C 225.743 138.403,225.867 138.600,225.867 138.789 C 225.867 139.389,227.233 142.257,227.625 142.480 C 227.831 142.597,228.000 142.862,228.000 143.067 C 228.000 143.693,231.907 147.602,233.194 148.264 C 233.857 148.605,234.400 148.981,234.400 149.100 C 234.400 149.356,238.576 150.667,239.392 150.667 C 239.702 150.667,240.000 150.801,240.055 150.964 C 240.181 151.342,247.572 151.390,248.060 151.015 C 248.247 150.872,249.116 150.600,249.992 150.412 C 251.496 150.088,253.306 149.397,253.600 149.036 C 253.673 148.946,254.241 148.614,254.862 148.299 C 256.101 147.671,260.000 143.940,260.000 143.383 C 260.000 143.191,260.233 142.783,260.519 142.477 C 260.804 142.171,261.347 141.158,261.725 140.227 C 262.104 139.295,262.533 138.321,262.679 138.062 C 264.868 134.169,264.956 117.932,262.813 113.233 C 262.604 112.775,262.119 111.638,261.735 110.706 C 261.351 109.775,260.804 108.762,260.519 108.456 C 260.233 108.150,260.000 107.746,260.000 107.559 C 260.000 107.082,256.030 102.977,255.092 102.484 C 254.666 102.260,254.093 101.868,253.819 101.613 C 253.545 101.358,252.634 100.921,251.794 100.642 C 250.954 100.364,250.200 100.046,250.120 99.938 C 249.608 99.249,241.857 98.959,239.133 99.527 M283.339 99.513 C 282.609 99.652,281.949 99.853,281.872 99.959 C 281.796 100.064,280.923 100.491,279.933 100.906 C 278.943 101.321,278.133 101.741,278.133 101.839 C 278.133 101.938,277.757 102.241,277.296 102.513 C 276.562 102.947,274.259 105.194,272.875 106.827 C 272.228 107.591,271.492 108.783,271.123 109.667 C 270.954 110.070,270.716 110.400,270.592 110.400 C 270.469 110.400,270.443 110.520,270.533 110.667 C 270.624 110.813,270.587 110.933,270.452 110.933 C 270.150 110.933,269.329 113.020,269.346 113.742 C 269.358 114.247,272.729 116.093,275.467 117.095 C 275.980 117.283,276.460 117.516,276.533 117.614 C 277.335 118.684,279.353 118.895,279.589 117.933 C 279.688 117.530,279.965 116.900,280.204 116.533 C 280.443 116.167,280.965 115.258,281.363 114.515 C 282.034 113.263,283.361 111.761,285.234 110.135 C 286.118 109.367,289.897 109.138,290.673 109.805 C 290.890 109.990,291.472 110.410,291.968 110.738 C 294.051 112.115,295.241 116.366,294.190 118.677 C 293.893 119.331,293.345 120.557,292.973 121.400 C 292.601 122.243,292.169 122.933,292.015 122.933 C 291.860 122.933,291.733 123.056,291.733 123.206 C 291.733 123.540,290.461 125.494,289.733 126.278 C 289.440 126.593,288.780 127.375,288.267 128.015 C 286.618 130.069,285.557 131.191,280.800 135.916 C 273.929 142.740,272.884 143.733,272.572 143.733 C 272.417 143.733,271.954 144.153,271.545 144.667 C 271.135 145.180,270.671 145.600,270.513 145.600 C 269.660 145.600,269.067 146.839,269.067 148.617 L 269.067 150.400 288.667 150.400 L 308.267 150.400 308.267 145.067 L 308.267 139.733 299.724 139.733 C 291.264 139.733,291.184 139.728,291.467 139.200 C 291.624 138.907,291.901 138.667,292.083 138.667 C 292.265 138.667,292.786 138.327,293.240 137.913 C 293.694 137.498,294.410 136.890,294.833 136.561 C 297.219 134.700,303.460 128.046,303.471 127.351 C 303.474 127.194,303.744 126.809,304.071 126.493 C 304.399 126.178,304.900 125.338,305.185 124.627 C 305.470 123.915,305.852 123.183,306.034 122.999 C 307.557 121.457,307.428 109.641,305.876 108.533 C 305.773 108.460,305.365 107.710,304.970 106.867 C 304.575 106.023,304.154 105.333,304.035 105.333 C 303.916 105.333,303.510 104.900,303.133 104.370 C 302.756 103.840,302.200 103.270,301.898 103.103 C 301.596 102.936,300.884 102.466,300.315 102.058 C 299.249 101.294,296.751 100.267,295.959 100.267 C 295.713 100.267,295.471 100.153,295.422 100.015 C 295.168 99.295,286.391 98.931,283.339 99.513 M325.467 100.938 C 324.880 101.280,324.224 101.719,324.008 101.913 C 323.631 102.254,323.096 102.573,321.533 103.389 C 321.130 103.600,320.800 103.870,320.800 103.990 C 320.800 104.110,320.275 104.455,319.633 104.756 C 318.992 105.058,318.302 105.469,318.100 105.670 C 317.898 105.871,317.133 106.381,316.400 106.805 C 315.667 107.228,314.985 107.693,314.886 107.838 C 314.787 107.983,314.307 108.290,313.820 108.520 L 312.933 108.938 312.862 115.002 C 312.822 118.338,312.866 121.067,312.959 121.067 C 313.300 121.067,315.200 119.895,315.200 119.684 C 315.200 119.565,315.312 119.467,315.449 119.467 C 315.772 119.467,318.505 117.797,318.625 117.526 C 318.675 117.412,319.185 117.080,319.758 116.787 L 320.800 116.256 320.800 133.328 L 320.800 150.400 326.800 150.400 L 332.800 150.400 332.800 125.333 L 332.800 100.267 329.667 100.292 C 326.895 100.314,326.410 100.389,325.467 100.938 M245.600 109.824 C 245.600 109.948,246.065 110.188,246.633 110.359 C 247.872 110.730,249.680 112.591,250.295 114.127 C 250.531 114.717,250.812 115.200,250.919 115.200 C 252.711 115.200,252.724 134.242,250.933 135.467 C 250.826 135.540,250.464 136.140,250.130 136.800 C 247.615 141.760,240.094 141.765,237.975 136.809 C 237.757 136.301,237.465 135.815,237.326 135.728 C 235.430 134.557,235.344 116.961,237.224 115.081 C 237.409 114.896,237.742 114.309,237.964 113.778 C 238.456 112.601,240.660 110.400,241.347 110.400 C 241.621 110.400,242.000 110.225,242.189 110.010 C 242.562 109.588,245.600 109.422,245.600 109.824 M140.667 131.134 C 138.583 131.374,135.600 132.665,134.289 133.894 C 133.837 134.317,133.388 134.665,133.293 134.665 C 132.926 134.668,131.064 137.796,130.610 139.173 C 129.750 141.779,130.153 146.963,131.316 148.248 C 131.546 148.501,131.733 148.832,131.733 148.983 C 131.733 149.452,133.830 151.668,134.874 152.302 C 135.420 152.634,135.928 152.992,136.003 153.099 C 136.629 153.987,143.731 154.884,144.619 154.187 C 144.792 154.051,145.293 153.855,145.733 153.752 C 146.520 153.567,149.867 151.511,149.867 151.213 C 149.867 151.130,150.196 150.706,150.598 150.272 C 152.674 148.034,154.114 142.295,153.093 140.330 C 152.960 140.075,152.572 139.116,152.231 138.200 C 151.658 136.664,150.415 135.086,148.367 133.295 C 146.992 132.092,142.730 130.896,140.667 131.134 M105.333 157.931 C 103.353 158.225,101.673 158.541,101.600 158.633 C 101.527 158.725,101.107 158.800,100.667 158.800 L 99.867 158.800 99.799 188.705 L 99.731 218.610 102.332 219.092 C 103.763 219.357,104.993 219.656,105.067 219.757 C 105.925 220.936,124.267 220.905,124.267 219.724 C 124.267 219.606,124.640 219.427,125.096 219.327 C 126.345 219.052,128.800 217.910,128.800 217.603 C 128.800 217.455,128.992 217.333,129.227 217.333 C 129.850 217.333,133.930 213.115,134.513 211.867 C 134.788 211.280,135.124 210.727,135.261 210.638 C 135.597 210.418,137.067 206.000,137.067 205.209 C 137.067 204.862,137.217 204.528,137.400 204.467 C 137.653 204.382,137.733 202.954,137.733 198.533 C 137.733 194.112,137.653 192.684,137.400 192.600 C 137.217 192.539,137.067 192.237,137.067 191.928 C 137.067 189.825,134.608 184.024,133.198 182.800 C 132.860 182.507,132.448 181.997,132.282 181.667 C 132.117 181.337,131.808 181.067,131.597 181.067 C 131.385 181.067,131.031 180.790,130.809 180.451 C 130.433 179.877,129.483 179.264,127.195 178.117 C 123.649 176.340,111.332 176.537,110.718 178.380 C 110.266 179.736,110.133 177.385,110.133 168.000 L 110.133 157.333 109.533 157.364 C 109.203 157.382,107.313 157.636,105.333 157.931 M217.867 163.092 C 215.575 163.500,212.267 164.337,212.267 164.508 C 212.267 164.620,212.117 164.716,211.933 164.723 C 211.392 164.742,208.000 166.358,208.000 166.597 C 208.000 166.718,207.670 166.964,207.267 167.144 C 202.666 169.202,196.267 178.966,196.267 183.928 C 196.267 184.237,196.152 184.529,196.012 184.578 C 195.178 184.869,195.128 199.146,195.958 199.723 C 196.072 199.802,196.308 200.662,196.483 201.634 C 196.851 203.677,197.778 206.710,198.100 206.922 C 198.221 207.001,198.654 207.817,199.063 208.733 C 199.472 209.650,199.884 210.400,199.979 210.400 C 200.074 210.400,200.375 210.790,200.647 211.267 C 201.231 212.288,202.567 213.754,204.532 215.531 C 205.642 216.535,209.201 218.536,210.849 219.083 C 211.702 219.366,212.460 219.671,212.533 219.761 C 213.729 221.222,230.788 221.223,233.523 219.762 C 233.785 219.622,234.900 219.241,236.000 218.915 C 238.447 218.189,240.000 217.374,239.999 216.818 C 239.996 216.203,239.438 214.288,239.216 214.133 C 239.110 214.060,238.683 212.770,238.266 211.267 C 237.684 209.166,237.404 208.533,237.055 208.533 C 236.504 208.533,234.654 209.170,233.200 209.860 C 230.436 211.171,222.097 211.811,218.667 210.976 C 216.720 210.502,214.933 209.842,214.933 209.596 C 214.933 209.487,214.566 209.246,214.116 209.060 C 213.323 208.731,211.246 206.797,209.845 205.083 C 209.466 204.619,208.875 203.436,208.532 202.453 C 208.188 201.471,207.828 200.607,207.730 200.533 C 206.671 199.736,206.191 190.966,206.956 186.400 C 207.365 183.963,207.445 183.645,207.688 183.486 C 207.817 183.402,208.076 182.853,208.264 182.267 C 208.681 180.964,209.486 179.336,210.016 178.722 C 210.232 178.472,210.791 177.803,211.258 177.237 C 212.901 175.245,217.493 172.800,219.592 172.800 C 219.963 172.800,220.267 172.680,220.267 172.533 C 220.267 172.202,226.307 172.168,226.512 172.498 C 226.590 172.626,227.287 172.812,228.061 172.914 C 229.690 173.127,233.402 174.146,233.605 174.436 C 233.728 174.611,236.156 175.733,236.412 175.733 C 236.467 175.733,236.650 175.223,236.817 174.600 C 236.985 173.977,237.209 173.407,237.315 173.333 C 237.532 173.183,238.936 168.848,238.935 168.333 C 238.934 168.150,239.053 168.000,239.200 168.000 C 240.350 168.000,239.338 166.577,237.667 165.843 C 236.677 165.408,235.652 164.932,235.389 164.784 C 235.127 164.636,234.807 164.580,234.679 164.659 C 234.550 164.739,234.405 164.690,234.356 164.552 C 234.032 163.642,221.173 162.503,217.867 163.092 M264.131 176.537 C 264.068 176.639,263.285 176.799,262.390 176.892 C 260.496 177.090,258.016 177.767,257.527 178.219 C 257.339 178.392,256.589 178.830,255.860 179.193 C 252.404 180.911,248.641 185.583,247.592 189.458 C 247.333 190.416,247.037 191.200,246.934 191.200 C 245.826 191.200,245.957 204.179,247.088 206.346 C 247.294 206.743,247.464 207.215,247.465 207.397 C 247.468 207.980,248.848 211.200,249.095 211.200 C 249.226 211.200,249.333 211.323,249.333 211.472 C 249.333 213.395,256.532 219.467,258.811 219.467 C 259.000 219.467,259.196 219.587,259.244 219.733 C 259.679 221.038,273.121 221.038,273.556 219.733 C 273.604 219.587,273.798 219.467,273.985 219.467 C 274.566 219.467,277.867 217.877,277.867 217.597 C 277.867 217.452,278.025 217.333,278.218 217.333 C 278.996 217.333,282.380 213.688,283.415 211.733 C 283.765 211.073,284.152 210.410,284.276 210.260 C 284.714 209.724,285.841 205.861,286.020 204.277 C 286.120 203.391,286.307 202.667,286.434 202.667 C 286.562 202.667,286.667 200.867,286.667 198.667 C 286.667 196.467,286.563 194.667,286.437 194.667 C 286.310 194.667,286.127 193.977,286.029 193.133 C 285.830 191.409,284.620 187.200,284.323 187.200 C 284.217 187.200,283.867 186.630,283.545 185.933 C 282.361 183.374,278.866 179.900,276.600 179.029 C 275.977 178.790,275.467 178.495,275.467 178.374 C 275.467 178.068,272.293 177.119,270.603 176.921 C 269.831 176.831,269.020 176.686,268.800 176.599 C 268.219 176.371,264.267 176.317,264.131 176.537 M307.170 177.062 C 303.240 177.553,299.467 178.209,299.467 178.402 C 299.467 178.515,299.047 178.686,298.533 178.782 L 297.600 178.958 297.600 199.485 L 297.600 220.012 302.733 219.939 L 307.867 219.867 307.935 202.898 L 308.004 185.929 309.937 185.748 C 314.206 185.348,318.667 185.670,318.667 186.378 C 318.667 186.501,319.032 186.753,319.479 186.939 C 319.926 187.124,320.483 187.648,320.716 188.104 C 320.950 188.560,321.274 189.021,321.437 189.129 C 321.607 189.242,321.620 189.329,321.467 189.333 C 321.320 189.338,321.352 189.438,321.537 189.555 C 322.462 190.142,322.657 193.129,322.662 206.733 L 322.667 220.000 327.867 220.000 L 333.067 220.000 333.060 207.400 C 333.052 193.069,332.502 185.600,331.456 185.600 C 331.347 185.600,331.180 185.290,331.085 184.911 C 330.656 183.202,327.776 179.923,325.949 179.065 C 325.390 178.803,324.861 178.476,324.772 178.340 C 324.035 177.211,312.617 176.382,307.170 177.062 M51.273 192.067 C 51.369 204.375,51.453 206.832,51.835 208.533 C 52.359 210.869,54.126 214.652,54.917 215.136 C 55.219 215.320,55.467 215.654,55.467 215.878 C 55.467 216.102,55.876 216.526,56.376 216.821 C 56.876 217.116,57.347 217.518,57.422 217.714 C 57.498 217.910,58.438 218.410,59.513 218.826 C 60.587 219.242,61.534 219.676,61.615 219.791 C 62.424 220.923,78.372 220.886,80.473 219.747 C 80.726 219.610,82.103 219.299,83.533 219.057 L 86.133 218.617 86.133 198.109 L 86.133 177.600 81.067 177.600 L 76.000 177.600 76.000 194.369 L 76.000 211.138 75.400 211.299 C 75.070 211.387,74.170 211.461,73.400 211.463 C 72.630 211.465,72.000 211.587,72.000 211.733 C 72.000 212.060,68.889 212.093,68.688 211.768 C 68.610 211.641,68.081 211.463,67.515 211.372 C 66.068 211.141,64.000 210.180,63.803 209.647 C 63.712 209.401,63.345 208.752,62.987 208.205 C 61.673 206.197,61.554 204.877,61.412 190.733 L 61.280 177.600 56.220 177.600 L 51.160 177.600 51.273 192.067 M148.313 192.277 C 148.378 203.287,148.480 207.002,148.719 207.150 C 148.894 207.258,149.002 207.584,148.959 207.873 C 148.916 208.163,148.970 208.580,149.078 208.800 C 149.186 209.020,149.544 210.077,149.873 211.150 C 150.202 212.222,150.605 213.242,150.769 213.416 C 150.933 213.591,151.427 214.273,151.867 214.933 C 152.307 215.593,152.899 216.306,153.184 216.517 C 153.468 216.728,153.889 217.089,154.120 217.320 C 154.627 217.827,156.469 218.933,156.807 218.933 C 156.941 218.933,157.684 219.223,158.459 219.577 C 160.421 220.474,164.556 220.918,168.933 220.700 C 173.332 220.481,177.600 219.984,177.600 219.692 C 177.600 219.568,177.870 219.467,178.200 219.468 C 178.530 219.469,179.850 219.269,181.133 219.023 L 183.467 218.576 183.467 198.088 L 183.467 177.600 178.400 177.600 L 173.333 177.600 173.333 194.369 L 173.333 211.138 172.733 211.299 C 172.403 211.387,171.503 211.461,170.733 211.463 C 169.963 211.465,169.333 211.587,169.333 211.733 C 169.333 211.884,168.578 212.000,167.600 212.000 C 166.622 212.000,165.867 211.884,165.867 211.733 C 165.867 211.587,165.628 211.467,165.337 211.467 C 162.186 211.467,159.200 208.376,159.200 205.115 C 159.200 204.819,159.050 204.528,158.867 204.467 C 158.608 204.380,158.513 201.377,158.442 190.978 L 158.350 177.600 153.288 177.600 L 148.227 177.600 148.313 192.277 M120.800 185.928 C 121.313 186.083,121.793 186.290,121.867 186.386 C 121.940 186.483,122.444 186.831,122.987 187.161 C 124.825 188.278,126.475 191.287,126.846 194.200 C 126.935 194.897,127.093 195.467,127.198 195.467 C 127.302 195.467,127.388 196.787,127.388 198.400 C 127.388 200.013,127.301 201.333,127.195 201.333 C 127.089 201.333,126.921 201.945,126.822 202.693 C 126.604 204.337,125.961 206.071,125.293 206.817 C 125.022 207.120,124.800 207.492,124.800 207.643 C 124.800 208.644,120.476 211.419,118.867 211.452 C 118.463 211.460,118.133 211.587,118.133 211.733 C 118.133 211.892,117.111 212.000,115.600 212.000 C 114.089 212.000,113.067 211.892,113.067 211.733 C 113.067 211.587,112.677 211.465,112.200 211.463 C 111.723 211.461,111.063 211.387,110.733 211.299 L 110.133 211.138 110.133 199.442 L 110.133 187.746 110.733 187.358 C 111.063 187.144,111.663 186.888,112.067 186.789 C 112.470 186.690,112.800 186.518,112.800 186.408 C 112.800 186.206,115.166 185.668,116.667 185.528 C 117.832 185.420,119.728 185.603,120.800 185.928 M268.290 185.604 C 269.799 185.891,272.647 187.585,273.176 188.511 C 273.336 188.791,273.848 189.661,274.313 190.444 C 276.491 194.104,276.460 205.775,274.270 207.001 C 274.048 207.125,273.867 207.401,273.867 207.613 C 273.867 208.451,271.030 210.859,269.618 211.221 C 268.875 211.412,268.267 211.665,268.267 211.784 C 268.267 211.903,267.367 212.000,266.267 212.000 C 265.167 212.000,264.267 211.890,264.267 211.755 C 264.267 211.620,263.877 211.425,263.400 211.322 C 262.483 211.124,260.268 209.937,260.265 209.641 C 260.265 209.545,259.935 209.104,259.532 208.661 C 258.442 207.460,257.982 206.483,257.466 204.267 C 257.210 203.167,256.895 202.058,256.767 201.804 C 256.461 201.196,256.465 195.860,256.772 195.263 C 256.903 195.008,257.160 194.147,257.343 193.348 C 257.760 191.528,258.622 189.536,259.118 189.245 C 259.326 189.123,259.607 188.731,259.743 188.374 C 259.879 188.016,260.263 187.617,260.595 187.487 C 260.928 187.358,261.447 187.017,261.748 186.730 C 262.938 185.599,265.730 185.119,268.290 185.604 " stroke="none" fill="#343434" fill-rule="evenodd"></path><path id="path1" d="M265.933 176.450 C 266.190 176.518,266.610 176.518,266.867 176.450 C 267.123 176.383,266.913 176.329,266.400 176.329 C 265.887 176.329,265.677 176.383,265.933 176.450 M127.290 198.400 C 127.290 199.500,127.337 199.950,127.394 199.400 C 127.452 198.850,127.452 197.950,127.394 197.400 C 127.337 196.850,127.290 197.300,127.290 198.400 " stroke="none" fill="#383434" fill-rule="evenodd"></path><path id="path2" d="M265.933 176.450 C 266.190 176.518,266.610 176.518,266.867 176.450 C 267.123 176.383,266.913 176.329,266.400 176.329 C 265.887 176.329,265.677 176.383,265.933 176.450 M127.290 198.400 C 127.290 199.500,127.337 199.950,127.394 199.400 C 127.452 198.850,127.452 197.950,127.394 197.400 C 127.337 196.850,127.290 197.300,127.290 198.400 " stroke="none" fill="#383434" fill-rule="evenodd"></path><path id="path3" d="M265.933 176.450 C 266.190 176.518,266.610 176.518,266.867 176.450 C 267.123 176.383,266.913 176.329,266.400 176.329 C 265.887 176.329,265.677 176.383,265.933 176.450 M127.290 198.400 C 127.290 199.500,127.337 199.950,127.394 199.400 C 127.452 198.850,127.452 197.950,127.394 197.400 C 127.337 196.850,127.290 197.300,127.290 198.400 " stroke="none" fill="#383434" fill-rule="evenodd"></path><path id="path4" d="M265.933 176.450 C 266.190 176.518,266.610 176.518,266.867 176.450 C 267.123 176.383,266.913 176.329,266.400 176.329 C 265.887 176.329,265.677 176.383,265.933 176.450 M127.290 198.400 C 127.290 199.500,127.337 199.950,127.394 199.400 C 127.452 198.850,127.452 197.950,127.394 197.400 C 127.337 196.850,127.290 197.300,127.290 198.400 " stroke="none" fill="#383434" fill-rule="evenodd"></path></g></svg>