<svg id="svg" version="1.1" xmlns="http://www.w3.org/2000/svg" xmlns:xlink="http://www.w3.org/1999/xlink" width="400" height="111.87335092348285" viewBox="0, 0, 400,111.87335092348285"><g id="svgg"><path id="path0" d="M74.109 23.713 C 73.178 23.876,71.586 24.157,70.572 24.338 C 69.557 24.519,68.534 24.667,68.298 24.667 C 67.642 24.667,67.667 23.575,67.667 52.154 L 67.667 79.114 68.625 79.378 C 78.576 82.117,88.339 81.793,93.765 78.544 C 95.122 77.732,98.167 75.140,98.167 74.798 C 98.167 74.741,98.327 74.515,98.523 74.295 C 102.373 69.973,103.600 59.624,101.135 52.266 C 100.635 50.774,99.455 48.288,99.045 47.862 C 98.927 47.740,98.746 47.482,98.643 47.289 C 98.346 46.735,96.372 44.621,95.805 44.250 C 95.665 44.158,95.220 43.862,94.817 43.592 C 90.241 40.526,82.840 40.137,77.609 42.688 C 77.257 42.859,76.938 43.000,76.901 43.000 C 76.864 43.000,76.833 38.578,76.833 33.173 L 76.833 23.347 76.317 23.382 C 76.033 23.401,75.039 23.550,74.109 23.713 M174.417 28.413 C 173.225 28.524,171.950 28.698,171.583 28.799 C 171.217 28.901,170.696 29.023,170.426 29.070 C 169.788 29.182,168.425 29.623,167.583 29.990 C 165.938 30.708,164.527 31.416,163.867 31.856 C 163.472 32.118,163.076 32.333,162.986 32.333 C 162.896 32.333,162.780 32.446,162.727 32.583 C 162.674 32.721,162.545 32.834,162.441 32.836 C 162.166 32.839,159.883 34.902,158.782 36.141 C 157.976 37.048,157.530 37.674,156.209 39.756 C 155.883 40.268,154.500 43.169,154.500 43.339 C 154.500 43.423,154.357 43.812,154.183 44.204 C 152.282 48.479,151.958 58.168,153.521 64.000 C 153.952 65.607,154.347 66.781,154.813 67.833 C 154.955 68.154,155.078 68.454,155.086 68.500 C 155.106 68.601,155.861 70.087,156.188 70.667 C 156.967 72.049,158.200 73.641,159.583 75.051 C 160.556 76.043,162.530 77.601,163.005 77.751 C 163.185 77.809,163.333 77.918,163.333 77.995 C 163.333 78.071,163.540 78.213,163.792 78.309 C 164.044 78.405,164.438 78.591,164.667 78.722 C 165.345 79.110,166.606 79.667,166.804 79.667 C 166.906 79.667,167.235 79.771,167.536 79.899 C 172.187 81.872,181.953 81.874,188.167 79.903 C 188.579 79.772,189.014 79.665,189.133 79.666 C 189.252 79.666,189.660 79.517,190.039 79.333 C 190.419 79.150,190.795 79.000,190.875 79.000 C 191.129 79.000,192.912 78.119,193.035 77.932 C 193.175 77.719,193.078 77.214,192.678 76.083 C 192.516 75.625,192.291 74.987,192.177 74.667 C 192.064 74.346,191.903 73.805,191.819 73.466 C 191.736 73.126,191.563 72.601,191.433 72.299 C 191.304 71.997,191.102 71.423,190.983 71.024 C 190.716 70.123,190.506 70.037,189.619 70.467 C 189.233 70.654,188.617 70.916,188.250 71.049 C 187.883 71.182,187.169 71.451,186.663 71.646 C 186.158 71.841,185.623 72.000,185.476 72.000 C 185.329 72.000,184.880 72.120,184.479 72.266 C 180.487 73.722,171.866 72.718,168.869 70.448 C 168.286 70.006,165.833 67.526,165.833 67.377 C 165.833 67.290,165.683 67.083,165.500 66.917 C 165.317 66.751,165.167 66.544,165.167 66.458 C 165.167 66.372,165.031 66.102,164.866 65.859 C 163.211 63.424,162.208 57.679,162.533 52.500 C 162.893 46.759,165.262 41.851,168.847 39.417 C 169.252 39.142,169.621 38.877,169.667 38.827 C 169.759 38.726,171.311 37.984,172.070 37.677 C 175.316 36.368,180.869 36.369,184.833 37.680 C 187.115 38.435,188.741 39.108,189.314 39.536 C 189.886 39.964,189.917 39.940,190.306 38.792 C 190.500 38.219,190.853 37.225,191.090 36.583 C 192.198 33.583,192.725 31.995,192.636 31.926 C 192.607 31.903,192.358 31.770,192.083 31.631 C 191.808 31.491,191.133 31.146,190.583 30.865 C 189.292 30.204,186.213 29.179,185.250 29.090 C 185.067 29.073,184.354 28.935,183.667 28.783 C 182.514 28.529,178.142 28.137,177.052 28.189 C 176.794 28.202,175.608 28.302,174.417 28.413 M231.803 29.379 C 226.200 32.093,229.267 40.506,235.191 38.672 C 239.564 37.318,239.931 31.360,235.761 29.421 C 234.627 28.894,232.843 28.875,231.803 29.379 M324.750 29.405 C 320.234 31.132,318.271 36.178,320.724 39.750 C 321.082 40.272,322.424 41.667,322.567 41.667 C 322.613 41.667,322.972 41.884,323.367 42.150 C 323.761 42.416,324.608 42.870,325.250 43.160 C 328.626 44.685,329.667 45.481,329.667 46.538 C 329.667 48.625,326.496 49.353,323.583 47.934 C 322.850 47.577,322.212 47.238,322.167 47.182 C 321.564 46.444,320.239 46.010,320.083 46.500 C 320.025 46.683,319.908 46.833,319.822 46.833 C 319.737 46.833,319.667 46.983,319.667 47.167 C 319.667 47.350,319.600 47.500,319.519 47.500 C 319.438 47.500,319.248 47.744,319.098 48.042 C 318.709 48.812,318.239 49.628,318.042 49.873 C 317.377 50.704,317.732 51.245,319.610 52.258 C 324.354 54.820,331.005 54.565,333.911 51.710 C 335.610 50.040,336.420 46.875,335.719 44.644 C 335.424 43.706,334.596 42.333,334.325 42.333 C 334.238 42.333,334.167 42.218,334.167 42.078 C 334.167 41.938,334.035 41.775,333.875 41.716 C 333.715 41.657,333.523 41.509,333.450 41.388 C 333.377 41.266,333.208 41.167,333.075 41.167 C 332.942 41.167,332.833 41.093,332.833 41.003 C 332.833 40.914,332.552 40.688,332.208 40.502 C 331.865 40.315,331.471 40.094,331.333 40.009 C 331.196 39.924,330.746 39.707,330.333 39.528 C 325.742 37.535,324.683 36.548,325.663 35.171 C 326.550 33.926,330.325 33.925,331.569 35.169 C 331.659 35.259,331.836 35.333,331.962 35.333 C 332.088 35.333,332.306 35.449,332.448 35.591 C 332.590 35.732,332.789 35.820,332.891 35.786 C 333.158 35.697,335.359 31.292,335.209 31.146 C 334.993 30.938,332.362 29.667,332.134 29.661 C 332.014 29.658,331.526 29.521,331.049 29.356 C 329.651 28.873,326.068 28.901,324.750 29.405 M302.763 29.871 C 302.633 30.171,302.374 30.765,302.188 31.190 C 302.002 31.615,301.800 32.160,301.739 32.400 C 301.679 32.640,301.563 32.878,301.482 32.928 C 301.400 32.978,301.333 33.135,301.333 33.276 C 301.333 33.417,301.227 33.769,301.098 34.058 C 300.968 34.347,300.668 35.052,300.431 35.625 C 300.194 36.198,299.806 37.135,299.569 37.708 C 299.332 38.281,299.032 38.986,298.902 39.275 C 298.773 39.564,298.667 39.916,298.667 40.057 C 298.667 40.198,298.600 40.355,298.518 40.405 C 298.437 40.456,298.322 40.704,298.263 40.957 C 298.204 41.210,298.019 41.717,297.850 42.083 C 297.682 42.450,297.393 43.125,297.208 43.583 C 297.024 44.042,296.722 44.792,296.537 45.250 C 296.353 45.708,296.063 46.418,295.893 46.828 C 295.723 47.237,295.601 47.593,295.623 47.618 C 295.645 47.644,295.513 47.930,295.331 48.254 C 295.149 48.578,295.000 48.935,294.999 49.047 C 294.998 49.159,294.880 49.475,294.735 49.750 C 294.591 50.025,294.374 50.512,294.254 50.833 C 294.027 51.438,293.464 52.867,293.252 53.375 C 293.139 53.647,293.343 53.667,296.224 53.667 L 299.318 53.667 299.659 52.895 C 299.846 52.471,300.003 52.040,300.006 51.937 C 300.009 51.834,300.156 51.450,300.333 51.083 C 300.510 50.717,300.658 50.325,300.661 50.214 C 300.664 50.103,300.793 49.746,300.948 49.422 L 301.228 48.833 305.657 48.833 L 310.085 48.833 310.274 49.375 C 311.011 51.481,311.383 52.499,311.616 53.042 L 311.884 53.667 314.960 53.667 C 317.823 53.667,318.027 53.647,317.917 53.375 C 317.852 53.215,317.737 52.896,317.662 52.667 C 317.529 52.263,317.210 51.439,316.483 49.625 C 316.290 49.144,316.022 48.453,315.888 48.090 C 315.754 47.727,315.546 47.240,315.425 47.007 C 315.202 46.575,314.762 45.511,314.250 44.167 C 313.615 42.499,312.918 40.766,312.037 38.667 C 311.671 37.796,311.243 36.746,311.085 36.333 C 310.786 35.552,310.413 34.611,309.814 33.125 C 309.620 32.644,309.310 31.875,309.126 31.417 C 308.942 30.958,308.666 30.321,308.513 30.000 L 308.234 29.417 305.616 29.371 L 302.999 29.325 302.763 29.871 M338.833 41.500 L 338.833 53.667 341.667 53.667 L 344.500 53.667 344.500 41.500 L 344.500 29.333 341.667 29.333 L 338.833 29.333 338.833 41.500 M355.373 29.664 C 355.260 29.846,355.164 30.090,355.161 30.206 C 355.158 30.322,355.010 30.717,354.833 31.083 C 354.656 31.450,354.509 31.825,354.506 31.917 C 354.503 32.008,354.356 32.383,354.179 32.750 C 354.002 33.117,353.658 33.904,353.414 34.500 C 353.170 35.096,352.865 35.820,352.735 36.109 C 352.606 36.397,352.500 36.702,352.500 36.786 C 352.500 36.869,352.355 37.238,352.177 37.605 C 352.000 37.972,351.804 38.474,351.742 38.721 C 351.680 38.968,351.563 39.211,351.482 39.261 C 351.400 39.312,351.333 39.468,351.333 39.610 C 351.333 39.751,351.227 40.103,351.098 40.391 C 350.968 40.680,350.668 41.385,350.431 41.958 C 350.194 42.531,349.806 43.469,349.569 44.042 C 349.332 44.615,349.032 45.320,348.902 45.609 C 348.773 45.897,348.667 46.249,348.667 46.390 C 348.667 46.532,348.600 46.688,348.518 46.739 C 348.437 46.789,348.322 47.037,348.263 47.290 C 348.204 47.543,348.018 48.050,347.849 48.417 C 347.170 49.891,345.833 53.288,345.833 53.539 C 345.833 53.609,347.202 53.666,348.875 53.666 L 351.917 53.665 352.208 52.956 C 352.369 52.566,352.503 52.172,352.506 52.082 C 352.509 51.991,352.656 51.617,352.833 51.250 C 353.010 50.883,353.158 50.509,353.161 50.418 C 353.164 50.328,353.298 49.934,353.458 49.544 L 353.750 48.835 358.170 48.834 L 362.589 48.833 362.976 49.875 C 363.189 50.448,363.507 51.237,363.682 51.629 C 363.857 52.021,364.000 52.438,364.000 52.555 C 364.000 52.671,364.094 52.969,364.208 53.215 L 364.417 53.664 367.472 53.665 L 370.526 53.667 370.408 53.125 C 370.292 52.599,369.963 51.784,369.315 50.417 C 369.141 50.050,368.997 49.675,368.994 49.583 C 368.991 49.492,368.844 49.117,368.667 48.750 C 368.490 48.383,368.342 47.997,368.339 47.891 C 368.336 47.785,368.192 47.410,368.019 47.057 C 367.845 46.705,367.575 46.079,367.418 45.667 C 367.260 45.254,366.980 44.542,366.796 44.083 C 366.612 43.625,366.313 42.875,366.132 42.417 C 365.951 41.958,365.660 41.283,365.484 40.917 C 365.309 40.550,365.166 40.183,365.166 40.102 C 365.166 40.020,365.025 39.645,364.852 39.268 C 364.678 38.892,364.408 38.246,364.250 37.833 C 364.093 37.421,363.814 36.708,363.629 36.250 C 363.445 35.792,363.153 35.060,362.980 34.625 C 362.456 33.303,361.968 32.119,361.656 31.417 C 361.493 31.050,361.230 30.431,361.071 30.042 L 360.783 29.333 358.181 29.333 C 355.767 29.333,355.565 29.357,355.373 29.664 M217.165 34.571 C 216.294 34.778,215.281 35.049,214.915 35.173 C 214.549 35.297,214.175 35.414,214.083 35.434 C 213.638 35.528,212.000 36.347,212.000 36.475 C 212.000 36.556,212.134 36.801,212.298 37.019 C 212.462 37.238,212.691 37.604,212.806 37.833 C 212.922 38.063,213.312 38.775,213.674 39.417 C 214.036 40.058,214.450 40.808,214.593 41.083 C 214.852 41.581,215.135 42.073,215.377 42.445 C 215.469 42.588,215.784 42.527,216.543 42.220 C 220.796 40.499,227.024 41.498,230.290 44.425 C 230.543 44.652,230.963 45.029,231.224 45.264 C 231.855 45.832,233.244 47.679,233.593 48.413 C 233.746 48.736,233.925 49.000,233.991 49.000 C 234.057 49.000,234.111 49.105,234.111 49.233 C 234.111 49.361,234.265 49.830,234.453 50.275 C 234.641 50.719,234.925 51.683,235.084 52.417 C 235.243 53.150,235.400 53.844,235.432 53.958 C 235.497 54.194,238.193 54.244,240.808 54.058 L 242.333 53.950 242.333 52.766 C 242.333 52.114,242.255 51.319,242.160 50.999 C 242.065 50.679,241.916 50.055,241.829 49.613 C 241.742 49.171,241.566 48.571,241.439 48.279 C 241.311 47.988,241.046 47.356,240.849 46.876 C 240.198 45.283,238.446 42.333,238.152 42.333 C 238.068 42.333,237.998 42.240,237.995 42.125 C 237.979 41.491,236.213 40.118,235.661 40.310 C 232.315 41.477,228.034 38.932,227.266 35.321 C 227.032 34.221,220.633 33.746,217.165 34.571 M306.379 39.250 C 306.557 39.708,306.808 40.383,306.939 40.750 C 307.069 41.117,307.250 41.567,307.340 41.750 C 307.431 41.933,307.571 42.308,307.652 42.583 C 307.733 42.858,307.852 43.215,307.917 43.375 C 308.027 43.645,307.854 43.667,305.601 43.667 C 304.262 43.667,303.167 43.626,303.167 43.577 C 303.167 43.527,303.317 43.193,303.500 42.833 C 303.683 42.474,303.836 42.083,303.839 41.965 C 303.842 41.847,303.990 41.450,304.167 41.083 C 304.344 40.717,304.491 40.325,304.494 40.214 C 304.497 40.103,304.605 39.765,304.733 39.464 C 304.861 39.163,305.100 38.593,305.264 38.196 L 305.561 37.476 305.809 37.946 C 305.945 38.205,306.202 38.792,306.379 39.250 M209.090 38.117 C 208.153 38.730,204.500 42.398,204.500 42.726 C 204.500 42.877,204.436 43.000,204.357 43.000 C 204.106 43.000,202.056 46.574,201.927 47.237 C 201.908 47.336,201.772 47.695,201.624 48.035 C 201.047 49.366,201.077 50.010,201.749 50.750 C 204.085 53.323,204.043 57.351,201.653 59.796 C 201.054 60.408,201.061 60.787,201.702 62.583 C 202.360 64.424,204.429 68.040,204.937 68.235 C 205.063 68.283,205.167 68.409,205.167 68.515 C 205.167 69.010,209.260 72.669,209.807 72.664 C 209.983 72.662,210.472 71.983,211.156 70.789 C 211.746 69.759,212.278 68.879,212.338 68.833 C 212.866 68.433,213.563 66.624,213.259 66.443 C 212.358 65.906,209.500 62.714,209.500 62.246 C 209.500 62.185,209.364 61.936,209.198 61.692 C 205.878 56.826,207.808 48.201,213.148 44.036 C 213.587 43.694,213.602 43.758,212.702 42.230 C 210.810 39.021,209.965 37.667,209.859 37.676 C 209.799 37.682,209.453 37.880,209.090 38.117 M358.547 38.292 C 358.692 38.635,359.009 39.442,359.251 40.083 C 359.492 40.725,359.797 41.486,359.928 41.775 C 360.059 42.064,360.167 42.387,360.167 42.492 C 360.167 42.597,360.281 42.904,360.421 43.175 L 360.675 43.667 358.161 43.667 C 356.778 43.667,355.674 43.610,355.706 43.542 C 356.066 42.783,356.191 42.489,356.395 41.917 C 356.525 41.550,356.797 40.837,357.000 40.333 C 357.315 39.548,357.627 38.712,357.917 37.875 C 358.047 37.502,358.278 37.654,358.547 38.292 M24.667 53.812 C 24.667 65.170,24.688 66.092,25.001 68.021 C 25.838 73.192,27.447 76.174,30.663 78.515 C 35.062 81.716,43.978 82.026,55.709 79.384 L 56.835 79.130 56.792 60.440 L 56.750 41.750 52.208 41.706 L 47.667 41.661 47.667 57.153 C 47.667 71.762,47.650 72.649,47.375 72.733 C 44.445 73.622,39.316 73.378,37.422 72.259 C 34.157 70.330,33.837 68.595,33.835 52.792 L 33.833 41.667 29.250 41.667 L 24.667 41.667 24.667 53.812 M110.882 54.292 C 110.928 63.199,111.005 67.162,111.144 67.750 C 111.252 68.208,111.367 68.846,111.399 69.167 C 111.819 73.364,114.780 77.649,118.510 79.459 C 122.834 81.558,131.222 81.737,139.284 79.902 C 139.853 79.773,140.475 79.667,140.666 79.667 C 140.858 79.667,141.461 79.535,142.007 79.375 L 143.000 79.083 143.000 60.375 L 143.000 41.667 138.417 41.667 L 133.833 41.667 133.833 57.155 C 133.833 71.761,133.817 72.649,133.542 72.734 C 130.662 73.617,125.552 73.359,123.556 72.229 C 120.377 70.430,120.000 68.327,120.000 52.410 L 120.000 41.667 115.408 41.667 L 110.816 41.667 110.882 54.292 M263.333 42.248 C 260.179 42.445,258.537 42.670,255.417 43.335 C 254.592 43.510,253.692 43.689,253.417 43.732 C 253.142 43.774,252.710 43.888,252.458 43.984 L 252.000 44.158 252.000 62.746 L 252.000 81.333 256.583 81.333 L 261.167 81.333 261.167 65.939 L 261.167 50.545 263.042 50.231 C 268.161 49.373,271.772 50.147,273.350 52.441 C 274.981 54.811,275.160 56.578,275.164 70.292 L 275.167 81.333 279.667 81.333 L 284.167 81.333 284.169 68.708 C 284.172 55.033,284.105 53.892,283.150 51.436 C 282.976 50.988,282.833 50.530,282.833 50.418 C 282.833 50.118,281.693 47.973,281.320 47.573 C 281.144 47.383,281.000 47.180,281.000 47.121 C 281.000 46.364,276.047 43.000,274.931 43.000 C 274.809 43.000,274.380 42.883,273.979 42.740 C 273.188 42.458,268.982 41.995,267.500 42.026 C 266.996 42.037,265.121 42.137,263.333 42.248 M86.750 49.248 C 87.300 49.407,87.821 49.604,87.908 49.685 C 87.995 49.767,88.204 49.833,88.372 49.833 C 89.293 49.833,92.218 53.859,92.412 55.393 C 92.437 55.589,92.579 56.211,92.728 56.774 C 93.094 58.153,93.112 63.333,92.756 64.701 C 92.622 65.216,92.477 65.828,92.435 66.059 C 92.114 67.833,89.807 70.960,88.083 71.959 C 85.596 73.401,81.129 73.761,77.458 72.815 L 76.833 72.654 76.833 61.847 C 76.833 52.837,76.872 51.009,77.064 50.849 C 77.445 50.533,78.897 49.835,79.175 49.834 C 79.317 49.834,79.507 49.760,79.597 49.669 C 80.307 48.959,84.826 48.693,86.750 49.248 M195.734 50.401 C 192.733 51.130,191.106 54.490,192.405 57.279 C 194.642 62.083,201.824 60.522,201.832 55.230 C 201.836 51.913,198.944 49.622,195.734 50.401 M235.329 56.792 C 235.305 59.667,232.727 64.175,229.917 66.255 C 229.550 66.526,229.213 66.791,229.167 66.843 C 229.121 66.896,228.708 67.125,228.250 67.353 C 227.792 67.581,227.229 67.873,227.000 68.001 C 226.771 68.129,226.433 68.257,226.250 68.286 C 226.067 68.314,225.654 68.439,225.333 68.563 C 223.236 69.372,219.760 69.268,216.942 68.312 C 216.130 68.037,215.450 67.835,215.430 67.864 C 215.339 67.993,214.488 69.518,213.913 70.583 C 213.566 71.225,213.153 71.938,212.996 72.167 C 212.839 72.396,212.660 72.745,212.599 72.943 C 212.537 73.141,212.377 73.394,212.244 73.505 C 211.793 73.879,211.994 74.129,213.105 74.574 C 217.155 76.195,220.815 76.678,224.512 76.079 C 225.376 75.939,226.322 75.786,226.613 75.740 C 227.047 75.671,227.164 75.559,227.260 75.120 C 228.018 71.660,231.684 69.270,235.046 70.043 L 236.176 70.302 236.722 69.776 C 237.323 69.198,239.045 67.064,239.232 66.667 C 239.296 66.529,239.532 66.117,239.756 65.750 C 241.199 63.381,242.333 59.786,242.333 57.579 L 242.333 56.333 238.833 56.333 L 235.333 56.333 235.329 56.792 M301.833 56.638 C 299.090 57.416,296.769 59.471,295.424 62.312 C 294.967 63.277,294.883 63.833,295.196 63.833 C 295.373 63.833,297.422 64.758,298.250 65.212 C 299.559 65.929,299.991 65.970,300.010 65.380 C 300.028 64.817,301.456 62.751,302.318 62.042 C 305.125 59.732,308.511 63.472,306.656 66.833 C 305.112 69.632,301.111 74.077,296.831 77.750 C 294.720 79.561,294.839 79.404,294.836 80.375 L 294.833 81.167 304.333 81.167 L 313.833 81.167 313.833 78.583 L 313.833 76.000 309.625 75.995 L 305.417 75.989 305.917 75.622 C 306.192 75.419,306.589 75.084,306.799 74.877 C 307.010 74.670,307.218 74.500,307.262 74.500 C 307.426 74.500,308.716 73.245,310.528 71.322 C 310.917 70.909,311.370 70.274,312.126 69.081 C 312.241 68.899,312.421 68.563,312.525 68.333 C 312.629 68.104,312.834 67.654,312.980 67.333 C 313.686 65.791,313.297 61.741,312.306 60.308 C 312.138 60.064,312.000 59.800,312.000 59.719 C 312.000 59.389,310.062 57.782,309.190 57.389 C 307.094 56.446,303.724 56.102,301.833 56.638 M323.583 56.670 C 320.036 57.583,316.992 61.023,316.435 64.750 C 316.380 65.117,316.264 65.792,316.177 66.250 C 315.552 69.557,316.534 75.515,318.013 77.396 C 318.189 77.619,318.333 77.856,318.333 77.922 C 318.333 78.089,320.524 80.167,320.700 80.167 C 320.780 80.167,321.043 80.296,321.285 80.455 C 324.241 82.391,329.872 81.665,332.500 79.008 C 336.557 74.905,337.015 65.074,333.376 60.190 C 332.744 59.341,331.566 58.167,331.346 58.167 C 331.270 58.167,331.117 58.058,331.007 57.925 C 329.986 56.695,326.064 56.032,323.583 56.670 M344.893 56.649 C 342.300 57.327,340.256 59.099,338.685 62.030 C 337.879 63.533,337.866 63.624,338.434 63.840 C 338.672 63.931,339.720 64.416,340.762 64.919 C 342.853 65.928,343.000 65.968,343.000 65.533 C 343.000 65.368,343.068 65.162,343.151 65.075 C 343.234 64.988,343.467 64.617,343.668 64.250 C 345.953 60.087,350.333 60.509,350.333 64.893 C 350.333 65.569,349.189 68.086,348.540 68.839 C 348.424 68.974,348.099 69.383,347.817 69.750 C 346.122 71.958,341.939 76.160,339.158 78.447 L 338.000 79.400 338.000 80.283 L 338.000 81.167 347.500 81.167 L 357.000 81.167 357.000 78.583 L 357.000 76.000 352.708 75.996 C 348.595 75.991,348.436 75.979,348.875 75.707 C 349.127 75.551,349.333 75.365,349.333 75.295 C 349.333 75.224,349.410 75.167,349.505 75.167 C 349.767 75.167,353.833 71.348,353.833 71.102 C 353.833 71.055,354.007 70.830,354.219 70.601 C 354.431 70.373,354.749 69.900,354.927 69.551 C 355.105 69.202,355.294 68.879,355.348 68.833 C 356.941 67.473,356.708 61.855,354.966 59.609 C 352.906 56.954,348.584 55.684,344.893 56.649 M365.455 57.167 C 365.221 57.350,364.990 57.500,364.940 57.500 C 364.891 57.500,364.501 57.744,364.074 58.042 C 362.904 58.858,362.451 59.146,362.076 59.313 C 361.889 59.397,361.636 59.586,361.514 59.733 C 361.392 59.880,361.230 60.000,361.154 60.000 C 361.032 60.000,360.467 60.347,359.458 61.040 C 359.183 61.229,358.977 67.000,359.246 67.000 C 359.289 67.000,360.170 66.436,361.204 65.747 L 363.083 64.494 363.127 72.830 L 363.170 81.167 366.002 81.167 L 368.833 81.167 368.833 69.000 L 368.833 56.833 367.356 56.833 C 366.131 56.833,365.806 56.890,365.455 57.167 M327.141 61.786 C 330.895 63.553,331.017 74.287,327.304 76.125 C 324.896 77.317,322.642 75.512,322.058 71.925 C 321.642 69.365,321.898 65.541,322.572 64.248 C 322.714 63.974,322.833 63.675,322.834 63.583 C 322.858 62.310,325.719 61.117,327.141 61.786 M231.927 71.833 C 227.857 73.728,227.753 78.973,231.745 80.996 C 236.638 83.474,241.110 76.816,237.187 72.893 C 235.901 71.607,233.465 71.116,231.927 71.833 " stroke="none" fill="#343434" fill-rule="evenodd"></path><path id="path1" d="" stroke="none" fill="#383434" fill-rule="evenodd"></path><path id="path2" d="" stroke="none" fill="#383434" fill-rule="evenodd"></path><path id="path3" d="" stroke="none" fill="#383434" fill-rule="evenodd"></path><path id="path4" d="" stroke="none" fill="#383434" fill-rule="evenodd"></path></g></svg>