<svg id="svg" version="1.1" xmlns="http://www.w3.org/2000/svg" xmlns:xlink="http://www.w3.org/1999/xlink" width="400" height="271.1111111111111" viewBox="0, 0, 400,271.1111111111111"><g id="svgg"><path id="path0" d="M146.983 42.276 C 138.136 45.130,137.099 58.200,145.433 61.824 C 156.373 66.581,165.407 53.372,157.043 44.848 C 154.697 42.457,150.080 41.277,146.983 42.276 M120.052 52.882 C 112.501 53.601,103.222 56.958,104.653 58.454 C 104.898 58.710,108.487 65.161,110.350 68.691 C 111.456 70.788,111.117 70.730,114.796 69.455 C 131.572 63.646,150.856 75.175,153.075 92.339 C 153.171 93.085,153.311 93.987,153.386 94.345 L 153.522 94.995 157.507 94.823 C 159.698 94.728,163.005 94.650,164.855 94.648 L 168.218 94.644 168.049 92.000 C 167.625 85.372,163.975 75.874,160.000 71.056 C 159.776 70.785,158.633 69.391,157.459 67.960 C 156.285 66.528,155.285 65.356,155.235 65.356 C 155.186 65.356,154.442 65.539,153.583 65.763 C 146.242 67.675,137.774 62.766,136.372 55.785 L 136.069 54.279 134.272 53.854 C 130.198 52.888,124.256 52.482,120.052 52.882 M97.492 61.594 C 91.862 65.693,86.525 72.453,83.593 79.198 C 81.066 85.013,80.933 85.988,82.461 87.470 C 86.922 91.799,87.530 99.428,83.861 105.030 C 83.196 106.044,82.361 107.065,82.004 107.299 C 79.215 109.126,87.082 123.625,94.373 130.094 C 99.371 134.528,99.559 134.577,101.184 131.858 C 101.873 130.705,103.573 127.881,104.964 125.580 L 107.491 121.398 106.288 120.428 C 90.946 108.055,91.170 83.785,106.720 73.597 C 107.623 73.005,107.720 73.262,104.774 68.428 C 103.336 66.067,101.658 63.291,101.046 62.259 C 99.655 59.916,99.767 59.937,97.492 61.594 M70.791 86.838 C 60.751 88.362,58.829 102.171,68.036 106.641 C 72.087 108.607,76.871 107.614,80.088 104.140 C 86.756 96.938,80.534 85.359,70.791 86.838 M153.380 100.136 C 153.312 100.471,153.115 101.539,152.941 102.508 C 152.211 106.582,149.902 112.099,147.978 114.367 C 141.704 121.762,135.674 125.311,127.534 126.397 C 123.189 126.977,115.358 125.820,112.596 124.191 C 112.102 123.900,111.652 123.661,111.596 123.661 C 111.473 123.661,107.947 129.915,106.167 133.288 C 105.459 134.631,104.774 135.845,104.643 135.986 C 103.858 136.841,105.874 138.008,110.915 139.618 C 117.047 141.576,126.778 142.057,133.012 140.711 L 135.991 140.068 136.425 138.441 C 138.382 131.105,146.053 126.678,153.601 128.528 L 155.202 128.920 156.584 127.431 C 163.257 120.240,168.136 109.214,168.136 101.325 L 168.136 99.525 160.819 99.525 L 153.502 99.525 153.380 100.136 M146.479 132.068 C 137.770 135.201,137.323 147.584,145.778 151.490 C 150.994 153.901,156.627 151.742,159.314 146.304 C 163.345 138.146,155.076 128.975,146.479 132.068 " stroke="none" fill="#ec5423" fill-rule="evenodd"></path><path id="path1" d="M234.695 55.119 L 233.898 56.000 234.780 55.204 C 235.264 54.765,235.661 54.369,235.661 54.322 C 235.661 54.113,235.437 54.297,234.695 55.119 M116.475 155.373 L 112.136 156.104 112.066 182.964 L 111.997 209.823 114.778 210.421 C 127.233 213.098,135.945 211.934,141.060 206.910 C 149.021 199.090,147.964 180.470,139.231 174.685 C 135.001 171.883,127.341 171.442,121.966 173.690 C 121.519 173.877,121.492 173.324,121.492 164.232 C 121.492 156.671,121.418 154.583,121.153 154.609 C 120.966 154.627,118.861 154.971,116.475 155.373 M217.535 160.133 C 205.317 162.474,198.407 171.726,198.392 185.763 C 198.372 204.388,208.541 213.695,226.850 211.808 C 231.748 211.303,238.373 209.390,238.373 208.479 C 238.373 208.045,236.144 201.101,235.926 200.858 C 235.815 200.734,234.558 201.068,233.134 201.602 C 231.709 202.135,229.651 202.710,228.560 202.878 C 227.469 203.047,226.321 203.302,226.009 203.446 C 224.552 204.116,218.800 203.156,215.979 201.771 C 205.949 196.845,205.693 175.329,215.605 170.303 C 216.270 169.966,216.881 169.585,216.964 169.458 C 217.645 168.402,223.771 167.865,227.390 168.543 C 230.638 169.151,231.051 169.262,231.051 169.523 C 231.051 169.655,231.173 169.763,231.321 169.763 C 231.470 169.763,232.393 170.141,233.373 170.604 C 234.352 171.067,235.186 171.402,235.225 171.350 C 235.397 171.122,237.831 163.831,237.831 163.544 C 237.831 161.300,223.773 158.937,217.535 160.133 M258.946 172.205 C 248.771 173.820,243.057 182.471,244.104 194.672 C 245.003 205.152,251.372 211.423,261.438 211.740 C 273.303 212.113,280.186 204.889,280.246 192.000 C 280.310 178.493,271.413 170.225,258.946 172.205 M298.305 172.620 C 295.328 172.995,293.238 173.369,291.482 173.842 L 290.441 174.123 290.441 192.553 L 290.441 210.983 295.051 210.983 L 299.661 210.983 299.661 195.813 C 299.661 186.045,299.757 180.583,299.931 180.475 C 300.397 180.187,305.720 179.983,307.373 180.190 C 308.799 180.368,309.094 180.524,310.382 181.787 C 312.778 184.136,312.770 184.080,312.885 198.576 L 312.984 210.983 317.577 210.983 L 322.169 210.983 322.169 198.403 C 322.169 184.481,322.019 182.770,320.514 179.607 C 317.508 173.287,310.508 171.085,298.305 172.620 M68.339 184.674 C 68.339 191.085,68.451 196.852,68.589 197.488 C 70.069 204.349,70.615 205.701,72.773 207.859 C 77.069 212.155,85.816 212.933,98.644 210.161 L 100.068 209.853 100.068 191.435 L 100.068 173.017 95.458 173.017 L 90.847 173.017 90.847 188.035 C 90.847 201.216,90.796 203.095,90.431 203.398 C 89.848 203.882,83.149 203.933,82.672 203.458 C 82.485 203.271,82.129 203.119,81.882 203.119 C 80.869 203.119,78.997 200.893,78.347 198.915 C 77.740 197.071,77.719 196.673,77.621 185.017 L 77.520 173.017 72.929 173.017 L 68.339 173.017 68.339 184.674 M155.932 185.185 C 155.932 198.081,156.096 200.289,157.285 203.446 C 160.283 211.401,169.571 213.641,185.559 210.264 L 187.661 209.820 187.661 191.418 L 187.661 173.017 183.051 173.017 L 178.441 173.017 178.441 188.035 C 178.441 205.676,178.990 203.717,174.033 203.763 C 165.964 203.838,165.177 202.091,165.162 184.068 L 165.153 173.017 160.542 173.017 L 155.932 173.017 155.932 185.185 M265.062 180.451 C 270.423 182.709,272.670 192.280,269.410 198.968 C 266.237 205.480,258.265 205.641,255.021 199.259 C 252.196 193.702,253.442 184.455,257.391 181.678 C 257.894 181.324,258.462 180.883,258.653 180.698 C 258.844 180.512,259.454 180.284,260.009 180.192 C 260.563 180.099,261.139 179.976,261.288 179.918 C 261.752 179.738,264.185 180.081,265.062 180.451 M131.006 180.388 C 132.029 180.744,132.040 180.751,133.568 182.066 C 137.311 185.287,138.114 194.516,135.078 199.411 C 134.328 200.620,132.994 201.834,131.254 202.891 L 129.763 203.797 126.071 203.792 C 120.953 203.787,121.471 205.074,121.556 192.574 L 121.627 182.102 122.576 181.642 C 123.098 181.388,123.674 181.052,123.856 180.893 C 124.727 180.133,129.339 179.807,131.006 180.388 " stroke="none" fill="#343434" fill-rule="evenodd"></path><path id="path2" d="M240.949 51.745 C 229.919 55.032,226.899 68.241,235.697 74.717 C 236.589 75.373,238.960 76.702,240.967 77.669 C 247.148 80.649,248.949 82.092,248.949 84.069 C 248.949 89.266,240.419 89.278,233.510 84.089 C 231.651 82.693,232.026 82.478,229.877 86.172 C 228.859 87.923,227.679 89.905,227.254 90.576 C 226.258 92.153,226.202 91.957,228.019 93.232 C 238.779 100.780,255.014 99.328,259.240 90.441 C 263.119 82.280,259.831 75.272,250.078 70.913 C 242.704 67.618,240.892 66.260,241.164 64.233 C 241.660 60.531,246.859 59.950,252.923 62.918 C 254.139 63.513,255.207 64.000,255.296 64.000 C 255.594 64.000,259.471 55.768,259.338 55.420 C 259.141 54.907,254.518 52.730,252.203 52.060 C 249.315 51.224,243.264 51.055,240.949 51.745 M199.140 52.536 C 198.528 54.265,194.772 63.633,194.116 65.066 C 193.676 66.025,191.361 71.761,188.971 77.812 C 183.226 92.352,183.034 92.826,182.716 93.220 C 182.565 93.407,182.549 93.561,182.679 93.563 C 182.809 93.566,182.787 93.657,182.631 93.767 C 182.250 94.034,181.148 96.989,181.353 97.194 C 181.441 97.283,184.028 97.356,187.100 97.356 L 192.686 97.356 193.184 95.932 C 193.458 95.149,193.843 94.142,194.040 93.695 C 194.236 93.247,194.794 91.814,195.279 90.508 L 196.161 88.136 204.359 88.136 L 212.557 88.136 212.830 88.881 C 212.980 89.292,213.669 91.209,214.362 93.141 C 215.054 95.074,215.752 96.813,215.911 97.006 C 216.331 97.512,227.254 97.515,227.254 97.009 C 227.254 96.818,225.052 91.174,222.361 84.467 C 219.670 77.759,215.662 67.756,213.455 62.237 L 209.441 52.203 204.375 52.130 C 199.733 52.062,199.295 52.096,199.140 52.536 M266.305 74.718 L 266.305 97.368 271.525 97.294 L 276.746 97.220 276.815 74.644 L 276.884 52.068 271.595 52.068 L 266.305 52.068 266.305 74.718 M296.065 54.841 C 294.820 57.688,292.422 63.673,288.376 74.034 C 287.124 77.241,285.921 80.231,285.704 80.678 C 284.643 82.866,279.051 96.732,279.051 97.175 C 279.051 97.280,281.639 97.334,284.803 97.294 L 290.554 97.220 291.607 94.373 C 292.185 92.807,292.928 90.793,293.258 89.898 L 293.857 88.271 302.154 88.200 L 310.451 88.128 311.164 90.098 C 311.556 91.181,312.288 93.227,312.791 94.644 L 313.705 97.220 319.429 97.294 C 323.973 97.352,325.153 97.294,325.153 97.015 C 325.153 96.613,321.408 87.130,320.362 84.881 C 319.980 84.061,318.413 80.217,316.880 76.339 C 315.347 72.461,313.030 66.603,311.731 63.322 C 310.432 60.041,309.143 56.929,308.867 56.407 C 308.590 55.885,308.083 54.725,307.740 53.831 L 307.116 52.203 302.200 52.130 L 297.284 52.056 296.065 54.841 M204.746 67.758 C 204.746 68.018,204.892 68.377,205.071 68.556 C 205.250 68.735,205.296 68.881,205.174 68.881 C 205.051 68.881,205.076 69.034,205.229 69.220 C 205.490 69.539,208.814 78.122,208.814 78.479 C 208.814 78.570,206.787 78.644,204.310 78.644 C 200.129 78.644,199.820 78.610,199.996 78.169 C 200.101 77.908,200.959 75.620,201.903 73.085 C 202.848 70.549,203.751 68.132,203.911 67.712 C 204.216 66.916,204.746 66.945,204.746 67.758 M304.665 73.420 C 305.642 75.991,306.441 78.212,306.441 78.356 C 306.441 78.512,304.622 78.652,301.991 78.699 C 299.544 78.743,297.567 78.719,297.598 78.644 C 297.628 78.569,297.796 78.203,297.971 77.831 C 298.146 77.458,299.041 75.139,299.961 72.678 C 300.880 70.217,301.749 67.898,301.891 67.525 L 302.151 66.847 302.520 67.797 C 302.723 68.319,303.689 70.849,304.665 73.420 M197.097 102.891 C 192.093 104.338,188.501 107.449,185.881 112.605 C 184.176 115.960,184.015 115.668,188.814 117.927 C 192.934 119.868,193.627 120.108,193.627 119.593 C 193.627 118.968,196.029 115.060,197.219 113.751 C 202.393 108.054,209.665 113.932,206.546 121.288 C 206.119 122.295,205.681 123.119,205.572 123.119 C 205.464 123.119,205.234 123.428,205.062 123.807 C 204.889 124.185,204.628 124.643,204.482 124.824 C 204.335 125.005,203.450 126.125,202.514 127.313 C 199.027 131.744,193.657 137.191,187.589 142.454 L 184.399 145.220 184.471 146.847 L 184.542 148.475 202.034 148.475 L 219.525 148.475 219.599 143.665 L 219.673 138.856 211.903 138.784 L 204.132 138.712 205.863 137.378 C 210.141 134.079,216.949 126.364,216.949 124.814 C 216.949 124.627,217.041 124.475,217.154 124.475 C 217.809 124.475,218.847 120.396,218.847 117.825 C 218.847 110.558,214.812 105.053,208.117 103.188 C 205.909 102.573,198.854 102.383,197.097 102.891 M237.751 102.908 C 229.898 104.625,224.537 112.227,223.748 122.760 C 222.532 139.012,229.649 149.245,242.169 149.246 C 245.764 149.246,250.278 148.100,251.119 146.974 C 251.193 146.875,251.742 146.486,252.339 146.112 C 263.116 139.346,263.286 114.165,252.610 105.863 C 248.851 102.939,242.961 101.768,237.751 102.908 M277.612 102.788 C 273.253 103.888,269.315 106.962,266.842 111.196 C 265.881 112.842,264.678 115.344,264.678 115.699 C 264.678 115.970,273.156 119.895,273.477 119.772 C 273.663 119.701,274.091 119.057,274.427 118.342 C 275.328 116.425,276.941 114.153,278.222 112.995 C 283.040 108.643,289.559 114.324,287.038 120.678 C 285.097 125.572,276.008 135.687,266.102 143.978 L 264.678 145.170 264.678 146.892 L 264.678 148.614 282.237 148.544 L 299.797 148.475 299.871 143.661 L 299.945 138.847 292.021 138.847 L 284.097 138.847 285.303 137.970 C 298.920 128.066,302.898 115.563,295.122 107.107 C 291.857 103.555,283.117 101.400,277.612 102.788 M310.176 107.341 L 304.012 111.322 304.006 116.678 C 304.003 119.624,304.051 122.034,304.113 122.034 C 304.176 122.034,305.765 121.058,307.644 119.864 C 309.524 118.671,311.119 117.695,311.190 117.695 C 311.260 117.695,311.349 124.620,311.388 133.085 L 311.458 148.475 316.746 148.475 L 322.034 148.475 322.103 125.898 L 322.173 103.322 319.256 103.341 L 316.339 103.360 310.176 107.341 M243.894 112.061 C 251.023 114.197,251.737 135.734,244.790 139.097 C 238.806 141.994,234.531 136.527,234.521 125.966 C 234.512 115.872,238.225 110.363,243.894 112.061 " stroke="none" fill="#5c2454" fill-rule="evenodd"></path><path id="path3" d="M123.186 67.994 C 123.746 68.053,124.661 68.053,125.220 67.994 C 125.780 67.936,125.322 67.888,124.203 67.888 C 123.085 67.888,122.627 67.936,123.186 67.994 M160.347 94.844 C 161.060 94.900,162.158 94.899,162.788 94.842 C 163.417 94.785,162.834 94.740,161.492 94.740 C 160.149 94.741,159.634 94.788,160.347 94.844 M90.847 126.780 C 91.353 127.302,91.828 127.729,91.903 127.729 C 91.978 127.729,91.625 127.302,91.119 126.780 C 90.613 126.258,90.138 125.831,90.063 125.831 C 89.989 125.831,90.341 126.258,90.847 126.780 " stroke="none" fill="#f03c38" fill-rule="evenodd"></path><path id="path4" d="" stroke="none" fill="#843c38" fill-rule="evenodd"></path></g></svg>