<svg id="svg" version="1.1" xmlns="http://www.w3.org/2000/svg" xmlns:xlink="http://www.w3.org/1999/xlink" width="400" height="271.6981132075471" viewBox="0, 0, 400,271.6981132075471"><g id="svgg"><path id="path0" d="M145.561 25.006 C 144.166 25.425,141.167 27.417,140.672 28.254 C 140.405 28.706,140.065 29.076,139.915 29.076 C 139.766 29.076,139.337 29.779,138.963 30.639 C 138.588 31.498,138.143 32.446,137.973 32.745 C 137.459 33.647,137.371 38.358,137.848 39.433 C 138.072 39.939,138.461 40.904,138.713 41.576 C 139.220 42.932,139.592 43.385,142.277 45.919 C 142.979 46.581,145.054 47.540,145.802 47.548 C 146.108 47.552,146.510 47.706,146.695 47.890 C 146.907 48.103,147.802 48.220,149.127 48.208 C 158.410 48.127,164.197 38.354,159.644 30.448 C 158.945 29.235,156.539 26.630,156.117 26.630 C 155.937 26.630,155.576 26.393,155.314 26.103 C 154.217 24.892,148.200 24.215,145.561 25.006 M253.465 35.504 C 253.054 35.575,252.717 35.729,252.717 35.844 C 252.717 35.960,252.014 36.223,251.155 36.429 C 250.245 36.648,248.869 37.289,247.858 37.967 C 246.904 38.607,246.048 39.130,245.956 39.131 C 245.674 39.131,243.523 41.739,242.892 42.845 C 242.565 43.418,242.146 44.069,241.960 44.293 C 240.158 46.467,240.301 55.067,242.175 57.219 C 242.443 57.527,242.663 57.895,242.663 58.036 C 242.663 58.457,245.420 61.413,245.813 61.413 C 246.013 61.413,246.307 61.657,246.467 61.956 C 246.627 62.254,247.273 62.760,247.903 63.079 C 248.533 63.399,249.110 63.751,249.185 63.862 C 249.260 63.973,250.234 64.452,251.351 64.926 C 252.468 65.400,253.446 65.885,253.525 66.003 C 253.604 66.121,254.280 66.442,255.027 66.716 C 265.978 70.723,261.890 79.602,250.611 76.306 C 249.976 76.120,249.457 75.888,249.457 75.789 C 249.457 75.690,249.059 75.455,248.573 75.266 C 247.411 74.815,243.455 72.282,242.932 71.655 C 242.324 70.924,241.804 71.297,240.906 73.105 C 240.463 73.998,240.018 74.728,239.918 74.728 C 239.818 74.728,239.521 75.187,239.257 75.747 C 238.994 76.308,238.452 77.255,238.053 77.853 C 235.828 81.184,235.828 82.022,238.047 83.154 C 238.643 83.458,239.130 83.805,239.130 83.925 C 239.130 84.045,239.956 84.482,240.964 84.896 C 241.973 85.310,242.867 85.760,242.952 85.897 C 243.147 86.212,247.265 87.399,249.049 87.653 C 249.796 87.760,250.487 87.971,250.584 88.122 C 250.826 88.496,259.904 88.502,260.377 88.128 C 260.573 87.973,261.257 87.766,261.897 87.668 C 263.691 87.395,266.649 86.380,267.273 85.825 C 267.581 85.551,267.970 85.326,268.136 85.326 C 268.714 85.326,272.264 81.732,272.791 80.612 C 274.201 77.619,274.466 76.775,274.749 74.382 C 275.542 67.653,271.697 61.445,264.946 58.555 C 264.273 58.267,263.655 57.937,263.572 57.822 C 263.489 57.707,262.511 57.295,261.399 56.906 C 260.286 56.517,259.314 56.107,259.239 55.994 C 259.165 55.881,258.308 55.443,257.337 55.022 C 256.365 54.600,255.448 54.119,255.299 53.952 C 255.149 53.785,254.616 53.360,254.113 53.007 C 252.497 51.872,252.240 50.495,253.247 48.370 C 254.191 46.375,258.866 45.913,263.315 47.375 C 263.838 47.547,264.327 47.761,264.402 47.851 C 264.618 48.113,268.115 49.728,268.464 49.728 C 268.638 49.728,269.036 49.147,269.347 48.438 C 269.659 47.728,269.994 47.086,270.091 47.011 C 270.188 46.936,270.628 46.141,271.069 45.245 C 271.509 44.348,271.955 43.551,272.059 43.473 C 272.493 43.149,273.370 40.646,273.217 40.166 C 273.127 39.880,272.359 39.316,271.513 38.912 C 270.666 38.509,269.933 38.090,269.884 37.981 C 269.776 37.740,266.035 36.539,264.532 36.262 C 263.937 36.152,263.369 35.937,263.270 35.783 C 263.082 35.493,254.868 35.260,253.465 35.504 M204.898 37.296 C 204.716 37.782,204.291 38.791,203.954 39.538 C 203.617 40.285,203.050 41.753,202.695 42.799 C 202.339 43.845,201.957 44.768,201.846 44.849 C 201.735 44.930,201.409 45.725,201.122 46.615 C 200.835 47.505,200.296 48.845,199.925 49.592 C 199.554 50.340,199.034 51.624,198.768 52.446 C 198.503 53.268,198.129 54.185,197.938 54.484 C 197.746 54.783,197.263 56.005,196.864 57.201 C 196.465 58.397,196.047 59.436,195.935 59.511 C 195.823 59.586,195.378 60.686,194.946 61.957 C 194.513 63.227,194.017 64.417,193.843 64.601 C 193.669 64.786,193.268 65.772,192.952 66.793 C 192.636 67.814,192.217 68.886,192.021 69.175 C 191.826 69.464,191.313 70.740,190.881 72.011 C 190.450 73.281,190.012 74.383,189.907 74.459 C 189.803 74.535,189.382 75.575,188.973 76.769 C 188.563 77.963,188.146 79.001,188.046 79.076 C 187.847 79.225,186.450 82.916,186.220 83.899 C 186.142 84.236,185.984 84.511,185.869 84.511 C 185.693 84.511,184.783 86.886,184.783 87.347 C 184.783 87.692,197.588 87.506,197.938 87.156 C 198.127 86.966,198.623 85.713,199.040 84.370 C 199.457 83.028,199.889 81.868,199.999 81.793 C 200.110 81.719,200.505 80.679,200.878 79.484 L 201.555 77.310 210.946 77.238 L 220.337 77.167 221.063 79.412 C 221.462 80.647,221.887 81.780,222.006 81.929 C 222.126 82.079,222.544 83.220,222.935 84.465 C 223.956 87.716,223.402 87.500,230.723 87.500 L 237.028 87.500 236.871 86.532 C 236.784 85.999,236.355 84.807,235.916 83.882 C 235.477 82.958,234.891 81.529,234.613 80.707 C 234.335 79.885,234.025 79.150,233.923 79.073 C 233.822 78.997,233.404 77.958,232.995 76.764 C 232.585 75.569,232.168 74.531,232.066 74.457 C 231.965 74.382,231.476 73.159,230.978 71.739 C 230.481 70.319,229.992 69.096,229.893 69.022 C 229.793 68.947,229.361 67.908,228.933 66.712 C 228.505 65.516,228.075 64.477,227.976 64.402 C 227.878 64.327,227.444 63.227,227.013 61.957 C 226.581 60.686,226.135 59.578,226.022 59.495 C 225.909 59.412,225.449 58.257,225.000 56.929 C 224.551 55.602,224.090 54.447,223.976 54.364 C 223.862 54.280,223.482 53.356,223.133 52.310 C 222.784 51.264,222.282 50.041,222.017 49.592 C 221.752 49.144,221.257 47.921,220.917 46.875 C 220.578 45.829,220.204 44.910,220.088 44.833 C 219.971 44.756,219.551 43.717,219.155 42.523 C 218.758 41.330,218.279 40.109,218.090 39.810 C 217.901 39.511,217.534 38.624,217.275 37.840 L 216.804 36.413 211.017 36.413 L 205.229 36.413 204.898 37.296 M280.978 61.957 L 280.978 87.500 286.957 87.500 L 292.935 87.500 292.935 61.957 L 292.935 36.413 286.957 36.413 L 280.978 36.413 280.978 61.957 M315.761 36.513 C 315.761 36.817,314.024 41.462,313.868 41.576 C 313.765 41.651,313.328 42.751,312.895 44.022 C 312.462 45.292,312.023 46.394,311.918 46.470 C 311.814 46.546,311.393 47.586,310.984 48.780 C 310.574 49.974,310.148 51.013,310.035 51.088 C 309.923 51.163,309.437 52.386,308.956 53.805 C 308.474 55.225,307.984 56.448,307.866 56.524 C 307.748 56.601,307.317 57.640,306.908 58.834 C 306.498 60.028,306.081 61.067,305.979 61.141 C 305.878 61.216,305.455 62.255,305.038 63.451 C 304.621 64.647,304.172 65.761,304.040 65.927 C 303.908 66.093,303.424 67.315,302.964 68.643 C 302.504 69.970,302.046 71.118,301.947 71.194 C 301.748 71.345,301.290 72.507,300.608 74.592 C 300.363 75.340,300.069 76.017,299.955 76.097 C 299.840 76.178,299.409 77.217,298.995 78.407 C 298.582 79.597,298.159 80.633,298.055 80.710 C 297.951 80.787,297.470 82.010,296.985 83.428 C 296.501 84.845,296.003 86.046,295.879 86.096 C 295.754 86.146,295.652 86.482,295.652 86.843 L 295.652 87.500 302.158 87.500 L 308.664 87.500 309.287 85.530 C 309.630 84.446,309.986 83.499,310.078 83.424 C 310.170 83.349,310.524 82.432,310.864 81.386 C 311.204 80.340,311.715 78.962,312.000 78.325 L 312.517 77.167 321.786 77.238 L 331.054 77.310 331.398 78.473 C 331.587 79.113,331.857 79.786,331.998 79.968 C 332.139 80.150,332.597 81.399,333.016 82.745 C 333.435 84.090,333.864 85.251,333.969 85.326 C 334.074 85.401,334.310 85.921,334.493 86.481 L 334.825 87.500 341.190 87.500 C 347.170 87.500,347.554 87.470,347.554 87.004 C 347.554 86.377,346.263 82.554,345.983 82.352 C 345.868 82.269,345.415 81.131,344.977 79.823 C 344.539 78.516,344.094 77.446,343.988 77.446 C 343.882 77.446,343.461 76.437,343.052 75.204 C 342.644 73.971,342.217 72.900,342.103 72.825 C 341.990 72.750,341.503 71.527,341.021 70.108 C 340.539 68.688,340.057 67.466,339.950 67.391 C 339.842 67.317,339.413 66.247,338.997 65.014 C 338.580 63.781,338.134 62.772,338.006 62.772 C 337.877 62.772,337.772 62.625,337.772 62.446 C 337.772 62.017,336.086 57.512,335.860 57.337 C 335.763 57.262,335.350 56.224,334.940 55.030 C 334.531 53.836,334.111 52.796,334.008 52.720 C 333.905 52.644,333.483 51.608,333.070 50.418 C 332.657 49.228,332.228 48.189,332.117 48.108 C 332.006 48.028,331.551 46.871,331.107 45.538 C 330.663 44.205,330.176 42.982,330.027 42.821 C 329.877 42.659,329.525 41.855,329.244 41.033 C 328.963 40.211,328.418 38.835,328.033 37.976 L 327.333 36.413 321.547 36.413 C 318.365 36.413,315.761 36.458,315.761 36.513 M114.674 36.942 C 111.968 37.170,109.159 37.674,108.440 38.059 C 108.207 38.184,106.732 38.612,105.163 39.009 C 103.594 39.407,102.249 39.818,102.174 39.923 C 102.099 40.028,101.132 40.474,100.025 40.913 C 97.694 41.838,97.202 42.367,97.928 43.169 C 98.195 43.464,98.775 44.419,99.216 45.290 C 99.657 46.162,100.302 47.364,100.649 47.962 C 101.435 49.316,104.274 54.434,104.936 55.690 C 105.720 57.178,105.819 57.207,107.430 56.419 C 111.052 54.646,123.913 52.780,123.913 54.027 C 123.913 54.165,124.616 54.358,125.476 54.456 C 128.149 54.762,130.746 55.399,132.043 56.067 C 132.728 56.419,133.930 56.935,134.715 57.212 C 135.499 57.489,136.141 57.812,136.141 57.930 C 136.141 58.047,136.722 58.442,137.432 58.807 C 138.142 59.172,139.081 59.755,139.518 60.102 C 141.820 61.930,144.098 63.984,144.764 64.833 C 145.178 65.359,145.914 66.242,146.399 66.794 C 146.885 67.347,147.282 67.937,147.282 68.105 C 147.283 68.274,147.462 68.561,147.682 68.743 C 148.368 69.313,150.523 73.625,151.133 75.649 C 151.453 76.712,151.804 77.643,151.912 77.717 C 152.161 77.889,152.989 81.864,152.989 82.887 C 152.989 84.533,152.924 84.511,157.706 84.510 C 160.118 84.509,163.851 84.428,166.001 84.330 L 169.909 84.151 169.744 81.138 C 169.421 75.215,166.161 64.763,163.946 62.549 C 163.749 62.351,163.585 62.045,163.582 61.869 C 163.579 61.693,163.211 60.999,162.765 60.326 C 162.319 59.654,161.584 58.534,161.133 57.839 C 160.681 57.143,160.132 56.505,159.911 56.421 C 159.691 56.336,159.510 56.110,159.509 55.919 C 159.508 55.727,158.560 54.549,157.403 53.300 L 155.299 51.030 153.261 51.501 C 150.522 52.133,148.477 52.288,147.303 51.952 C 146.769 51.799,145.781 51.536,145.109 51.369 C 143.577 50.987,141.825 50.254,141.347 49.795 C 141.146 49.602,140.595 49.248,140.124 49.008 C 139.238 48.558,136.957 46.361,136.957 45.959 C 136.957 45.834,136.681 45.433,136.345 45.068 C 135.629 44.291,134.733 42.344,134.088 40.164 C 133.682 38.791,133.534 38.595,132.780 38.434 C 132.312 38.334,131.800 38.149,131.643 38.023 C 130.578 37.170,119.980 36.495,114.674 36.942 M91.644 45.389 C 91.308 45.524,91.033 45.758,91.033 45.908 C 91.033 46.059,90.635 46.382,90.149 46.627 C 89.172 47.120,89.220 47.078,84.710 51.411 C 82.952 53.101,81.179 54.973,80.771 55.571 C 80.363 56.168,79.945 56.721,79.842 56.798 C 79.671 56.928,77.644 59.993,76.143 62.393 C 75.800 62.941,75.209 64.125,74.831 65.024 C 74.453 65.923,73.983 66.915,73.787 67.229 C 73.592 67.542,73.162 68.655,72.833 69.701 C 72.504 70.747,72.062 71.989,71.851 72.460 C 71.174 73.971,71.352 74.639,72.828 76.115 C 74.029 77.316,75.551 79.623,76.351 81.457 C 78.424 86.205,76.813 93.849,72.910 97.788 C 72.080 98.625,71.467 99.488,71.467 99.819 C 71.467 100.631,73.651 106.842,74.092 107.283 C 74.292 107.483,74.457 107.807,74.457 108.001 C 74.457 108.478,75.476 110.756,75.891 111.207 C 76.073 111.405,76.580 112.236,77.017 113.053 C 77.453 113.870,77.893 114.599,77.994 114.674 C 78.096 114.749,78.472 115.253,78.831 115.794 C 81.285 119.495,88.688 127.174,89.802 127.174 C 89.957 127.174,90.430 127.541,90.853 127.989 C 91.950 129.152,92.734 129.066,93.342 127.717 C 93.612 127.120,93.914 126.630,94.013 126.630 C 94.112 126.630,94.544 125.897,94.973 125.000 C 95.401 124.103,95.829 123.370,95.924 123.370 C 96.018 123.370,96.516 122.544,97.029 121.535 C 97.542 120.526,98.057 119.659,98.174 119.608 C 98.291 119.556,98.704 118.884,99.093 118.113 C 99.482 117.343,99.889 116.651,99.998 116.576 C 101.209 115.746,101.193 114.080,99.967 113.335 C 98.708 112.569,94.977 108.824,93.586 106.929 C 92.928 106.033,92.293 105.177,92.175 105.027 C 91.462 104.125,89.417 99.823,88.881 98.098 C 88.533 96.977,88.152 95.938,88.035 95.788 C 86.817 94.235,86.713 81.331,87.896 78.682 C 88.100 78.226,88.600 76.814,89.007 75.543 C 89.414 74.273,89.864 73.085,90.007 72.904 C 90.150 72.723,90.653 71.855,91.125 70.974 C 91.946 69.444,93.193 67.446,93.871 66.576 C 94.749 65.449,99.815 60.607,100.267 60.463 C 101.128 60.190,101.206 59.310,100.469 58.196 C 100.102 57.642,99.545 56.685,99.231 56.068 C 98.916 55.452,98.484 54.773,98.270 54.559 C 98.056 54.345,97.512 53.439,97.061 52.544 C 96.609 51.650,96.047 50.758,95.810 50.562 C 95.574 50.366,95.380 50.065,95.380 49.893 C 95.380 49.721,94.941 48.913,94.405 48.098 C 93.868 47.284,93.254 46.278,93.039 45.863 C 92.616 45.044,92.554 45.023,91.644 45.389 M321.992 53.804 C 322.085 53.879,322.519 55.041,322.956 56.386 C 323.392 57.731,323.843 58.897,323.958 58.978 C 324.073 59.058,324.427 59.967,324.745 60.997 C 325.063 62.027,325.600 63.489,325.938 64.247 C 327.088 66.830,327.545 66.576,321.750 66.576 L 316.614 66.576 316.887 65.693 C 317.038 65.207,317.278 64.417,317.422 63.936 C 317.566 63.456,317.783 63.001,317.906 62.926 C 318.028 62.850,318.542 61.531,319.048 59.995 C 319.554 58.458,320.055 57.162,320.163 57.114 C 320.271 57.066,320.635 56.107,320.973 54.983 C 321.310 53.859,321.639 53.103,321.704 53.304 C 321.768 53.504,321.898 53.730,321.992 53.804 M211.431 54.416 C 211.601 55.051,211.832 55.632,211.944 55.707 C 212.056 55.781,212.488 56.882,212.903 58.152 C 213.319 59.423,213.768 60.600,213.901 60.769 C 214.034 60.938,214.504 62.145,214.946 63.451 C 215.387 64.757,215.889 65.995,216.060 66.201 C 216.322 66.518,215.537 66.576,211.005 66.576 C 206.748 66.576,205.697 66.506,205.915 66.236 C 206.066 66.050,206.535 64.857,206.957 63.587 C 207.379 62.317,207.810 61.216,207.914 61.140 C 208.019 61.065,208.507 59.781,209.000 58.287 C 209.493 56.793,209.975 55.510,210.072 55.435 C 210.168 55.360,210.397 54.840,210.580 54.280 C 210.998 52.997,211.052 53.006,211.431 54.416 M59.252 75.298 C 58.436 75.439,57.703 75.650,57.621 75.767 C 57.540 75.884,56.923 76.187,56.250 76.440 C 54.222 77.205,51.435 80.143,50.657 82.337 C 50.419 83.010,50.112 83.772,49.976 84.032 C 49.575 84.795,49.691 89.137,50.147 90.446 C 50.734 92.131,51.597 93.750,51.908 93.750 C 52.054 93.750,52.174 93.917,52.174 94.120 C 52.174 94.773,54.694 96.860,56.658 97.834 C 59.618 99.302,63.661 99.255,66.594 97.719 C 68.421 96.762,71.467 94.140,71.467 93.526 C 71.467 93.396,71.704 93.016,71.994 92.682 C 73.857 90.534,73.679 84.030,71.670 80.849 C 70.203 78.525,67.227 76.087,65.856 76.087 C 65.654 76.087,65.489 75.978,65.489 75.845 C 65.489 75.319,61.268 74.948,59.252 75.298 M153.329 89.704 C 153.142 89.897,152.989 90.463,152.989 90.963 C 152.989 92.079,152.207 95.959,151.906 96.332 C 151.786 96.481,151.440 97.398,151.137 98.370 C 149.847 102.509,146.547 107.574,142.799 111.169 C 141.283 112.622,138.241 114.946,137.854 114.946 C 137.715 114.946,137.350 115.181,137.041 115.469 C 136.732 115.756,135.582 116.374,134.484 116.841 C 133.386 117.308,132.424 117.778,132.345 117.885 C 132.173 118.117,129.000 118.992,126.902 119.386 C 126.080 119.540,125.321 119.796,125.215 119.954 C 124.920 120.393,115.160 120.344,115.013 119.903 C 114.951 119.717,114.630 119.565,114.299 119.565 C 113.316 119.565,108.644 118.267,107.483 117.672 C 105.888 116.854,105.606 116.948,104.873 118.546 C 104.512 119.331,104.141 120.034,104.047 120.109 C 103.952 120.183,103.508 120.917,103.059 121.739 C 102.609 122.561,101.655 124.273,100.938 125.543 C 100.221 126.814,99.282 128.556,98.851 129.416 C 98.420 130.275,97.952 130.978,97.811 130.978 C 97.670 130.978,97.554 131.258,97.554 131.599 C 97.554 132.206,100.543 133.696,101.761 133.696 C 101.988 133.696,102.174 133.801,102.174 133.930 C 102.174 134.058,103.060 134.432,104.144 134.761 C 105.228 135.089,106.679 135.531,107.369 135.743 C 113.403 137.597,126.784 137.622,132.658 135.789 C 133.592 135.498,133.697 135.351,134.246 133.567 C 135.487 129.533,137.940 126.092,140.557 124.711 C 141.118 124.416,141.576 124.068,141.576 123.939 C 141.576 123.810,141.851 123.638,142.188 123.556 C 142.524 123.475,143.521 123.155,144.404 122.845 C 145.286 122.536,146.356 122.283,146.781 122.283 C 147.206 122.283,147.554 122.160,147.554 122.011 C 147.554 121.698,150.622 121.636,150.928 121.943 C 151.039 122.055,151.824 122.282,152.671 122.447 C 153.519 122.613,154.405 122.831,154.640 122.934 C 155.289 123.216,160.584 117.513,161.489 115.557 C 161.645 115.221,161.854 114.946,161.955 114.946 C 162.056 114.946,162.494 114.243,162.930 113.383 C 163.365 112.524,163.997 111.475,164.334 111.053 C 164.670 110.630,164.946 110.165,164.946 110.018 C 164.946 109.872,165.295 109.048,165.722 108.188 C 166.149 107.328,166.776 105.775,167.117 104.738 C 167.457 103.702,167.847 102.712,167.983 102.539 C 168.500 101.883,169.587 95.927,169.749 92.867 L 169.917 89.674 163.151 89.672 C 159.430 89.670,155.774 89.598,155.027 89.511 C 154.094 89.403,153.562 89.463,153.329 89.704 M203.300 93.499 C 202.649 93.627,201.976 93.846,201.805 93.986 C 201.634 94.126,200.986 94.376,200.364 94.542 C 199.743 94.709,198.489 95.393,197.578 96.064 C 196.668 96.734,195.860 97.283,195.784 97.283 C 195.281 97.283,191.802 101.425,190.839 103.169 C 190.440 103.892,190.025 104.546,189.916 104.622 C 189.620 104.829,188.587 107.553,188.587 108.126 C 188.587 108.457,189.017 108.814,189.878 109.197 C 190.588 109.512,191.352 109.892,191.576 110.040 C 192.520 110.663,197.900 113.043,198.364 113.043 C 198.729 113.043,198.995 112.667,199.321 111.685 C 199.569 110.938,199.854 110.326,199.954 110.326 C 200.055 110.326,200.434 109.745,200.797 109.035 C 201.160 108.325,201.590 107.622,201.752 107.473 C 201.914 107.323,202.452 106.681,202.948 106.046 C 203.444 105.411,203.964 104.891,204.104 104.891 C 204.244 104.891,204.843 104.586,205.435 104.212 C 207.722 102.768,211.714 103.999,212.960 106.533 C 214.516 109.694,214.813 111.515,214.015 113.002 C 213.803 113.398,213.405 114.310,213.132 115.028 C 212.859 115.746,212.449 116.541,212.221 116.794 C 211.992 117.048,211.470 117.831,211.061 118.534 C 210.652 119.238,209.952 120.213,209.506 120.701 C 209.060 121.189,208.696 121.679,208.696 121.791 C 208.696 121.902,208.298 122.415,207.813 122.931 C 207.327 123.447,205.951 124.936,204.755 126.239 C 201.481 129.808,196.247 134.906,192.707 137.973 C 192.059 138.535,191.203 139.305,190.805 139.684 C 190.407 140.064,189.684 140.653,189.198 140.994 C 188.347 141.591,188.315 141.680,188.315 143.497 L 188.315 145.380 208.288 145.380 L 228.261 145.380 228.261 139.946 L 228.261 134.511 219.574 134.511 C 210.323 134.511,209.966 134.452,212.123 133.290 C 212.656 133.004,213.313 132.488,213.582 132.145 C 213.852 131.802,214.201 131.522,214.357 131.522 C 214.743 131.522,221.739 124.547,221.739 124.162 C 221.739 123.993,222.028 123.628,222.382 123.350 C 222.735 123.072,223.178 122.474,223.366 122.020 C 223.554 121.567,223.807 121.196,223.929 121.196 C 224.199 121.196,225.815 118.066,225.815 117.542 C 225.815 117.334,225.941 117.123,226.094 117.072 C 227.029 116.760,227.535 109.663,226.877 106.104 C 226.260 102.767,223.661 98.566,221.163 96.868 C 220.508 96.424,219.822 95.918,219.637 95.744 C 219.453 95.570,218.474 95.166,217.463 94.846 C 216.452 94.526,215.412 94.148,215.152 94.006 C 213.843 93.293,206.044 92.959,203.300 93.499 M249.321 93.469 C 248.723 93.599,247.867 93.897,247.418 94.133 C 246.970 94.369,246.446 94.563,246.253 94.564 C 245.749 94.566,243.771 95.611,243.117 96.221 C 242.811 96.506,242.465 96.739,242.349 96.739 C 241.476 96.739,237.665 101.033,236.682 103.125 C 236.330 103.872,235.954 104.545,235.845 104.621 C 235.582 104.802,234.512 107.633,234.509 108.152 C 234.508 108.376,234.317 108.924,234.085 109.370 C 232.621 112.178,232.554 130.435,234.008 130.435 C 234.135 130.435,234.239 130.605,234.239 130.814 C 234.239 131.483,235.329 134.746,235.674 135.110 C 235.857 135.304,236.296 136.088,236.648 136.854 C 237.000 137.619,237.764 138.766,238.345 139.402 C 238.927 140.038,239.402 140.665,239.402 140.795 C 239.402 140.926,239.585 141.033,239.807 141.033 C 240.030 141.033,240.367 141.285,240.555 141.594 C 241.388 142.961,246.739 145.652,248.624 145.652 C 248.908 145.652,249.189 145.801,249.250 145.984 C 249.409 146.460,257.445 146.468,257.921 145.992 C 258.108 145.805,258.475 145.652,258.736 145.652 C 259.553 145.652,263.560 144.292,263.782 143.939 C 263.899 143.754,264.300 143.448,264.674 143.258 C 267.199 141.977,269.616 139.297,271.093 136.141 C 271.477 135.319,271.889 134.586,272.007 134.511 C 272.286 134.334,273.247 131.192,273.503 129.620 C 273.613 128.947,273.809 128.265,273.938 128.104 C 274.802 127.030,274.793 113.370,273.928 111.740 C 273.793 111.486,273.474 110.363,273.221 109.245 C 272.735 107.104,270.563 102.174,270.105 102.174 C 269.958 102.174,269.837 102.043,269.837 101.884 C 269.837 101.104,266.728 97.753,265.053 96.728 C 264.471 96.372,263.851 95.941,263.675 95.770 C 263.500 95.600,262.644 95.184,261.773 94.846 C 260.903 94.508,259.762 94.039,259.239 93.804 C 258.140 93.310,251.147 93.074,249.321 93.469 M294.061 93.482 C 293.410 93.619,292.737 93.840,292.566 93.972 C 292.395 94.105,291.609 94.440,290.818 94.718 C 290.028 94.996,289.147 95.442,288.860 95.710 C 288.573 95.977,288.205 96.196,288.042 96.196 C 287.628 96.196,282.610 101.265,282.604 101.690 C 282.601 101.881,282.326 102.304,281.993 102.629 C 281.659 102.955,281.085 103.933,280.717 104.803 C 280.348 105.674,279.890 106.547,279.697 106.745 C 278.649 107.821,279.215 108.485,282.577 110.122 C 284.341 110.982,285.926 111.685,286.099 111.685 C 286.272 111.685,286.413 111.787,286.413 111.913 C 286.413 112.213,287.496 112.697,288.631 112.903 C 289.538 113.068,289.538 113.067,290.619 110.839 C 291.214 109.613,291.825 108.477,291.978 108.313 C 292.130 108.150,292.621 107.527,293.068 106.929 C 294.150 105.481,295.059 104.699,296.128 104.298 C 296.613 104.116,297.011 103.869,297.011 103.750 C 297.011 103.630,297.745 103.533,298.641 103.533 C 299.538 103.533,300.272 103.630,300.272 103.750 C 300.272 103.869,300.730 104.128,301.291 104.326 C 302.391 104.713,303.533 105.617,303.533 106.101 C 303.533 106.266,303.764 106.599,304.047 106.841 C 305.268 107.887,305.314 114.150,304.106 114.934 C 303.981 115.015,303.483 115.846,302.999 116.780 C 302.515 117.714,302.024 118.478,301.909 118.478 C 301.793 118.478,301.526 118.835,301.315 119.271 C 300.944 120.035,300.392 120.752,297.874 123.742 C 296.542 125.323,285.848 136.140,285.614 136.143 C 285.531 136.144,284.728 136.823,283.832 137.653 C 280.926 140.342,280.582 140.640,279.823 141.118 C 279.125 141.558,279.076 141.712,279.076 143.485 L 279.076 145.380 299.049 145.380 L 319.022 145.380 319.022 139.946 L 319.022 134.511 310.258 134.507 L 301.495 134.503 302.582 133.566 C 303.179 133.051,303.794 132.625,303.948 132.619 C 304.101 132.613,304.545 132.272,304.934 131.861 C 305.324 131.450,306.341 130.503,307.195 129.755 C 308.049 129.008,308.950 128.170,309.197 127.892 C 309.444 127.615,310.350 126.677,311.209 125.808 C 312.069 124.939,312.772 124.127,312.772 124.003 C 312.772 123.879,313.200 123.297,313.722 122.710 C 314.245 122.122,314.942 121.083,315.270 120.400 C 315.599 119.717,316.009 119.014,316.181 118.840 C 316.353 118.665,316.767 117.625,317.100 116.530 C 317.433 115.434,317.818 114.326,317.956 114.066 C 318.272 113.470,318.287 107.691,317.973 107.496 C 317.844 107.417,317.664 106.803,317.572 106.133 C 317.331 104.379,316.371 101.679,315.750 101.013 C 315.457 100.698,315.217 100.341,315.217 100.218 C 315.217 100.095,314.848 99.599,314.397 99.114 C 313.946 98.630,313.315 97.952,312.995 97.607 C 312.675 97.262,312.035 96.786,311.573 96.550 C 311.112 96.313,310.673 96.033,310.598 95.927 C 309.329 94.123,298.569 92.532,294.061 93.482 M336.957 94.837 C 336.583 95.129,336.130 95.371,335.951 95.374 C 335.772 95.378,335.527 95.551,335.408 95.759 C 335.288 95.967,334.579 96.474,333.832 96.887 C 333.084 97.299,332.412 97.711,332.337 97.802 C 332.072 98.124,329.899 99.457,329.639 99.457 C 329.494 99.457,329.277 99.622,329.158 99.825 C 329.038 100.028,328.512 100.394,327.989 100.640 C 327.466 100.885,326.711 101.368,326.311 101.712 C 325.911 102.057,325.147 102.574,324.613 102.861 L 323.641 103.384 323.641 109.437 C 323.641 113.561,323.734 115.489,323.933 115.489 C 324.300 115.489,326.736 114.087,326.855 113.806 C 326.904 113.692,327.546 113.271,328.282 112.870 C 329.017 112.470,329.620 112.039,329.620 111.913 C 329.620 111.788,329.754 111.685,329.917 111.685 C 330.081 111.685,330.569 111.433,331.002 111.124 L 331.789 110.564 331.859 127.904 L 331.929 145.245 338.111 145.318 L 344.293 145.391 344.293 119.842 L 344.293 94.293 340.965 94.300 C 338.080 94.305,337.545 94.376,336.957 94.837 M257.094 104.982 C 259.315 106.289,261.685 110.886,261.685 113.886 C 261.685 114.294,261.835 114.679,262.019 114.740 C 262.490 114.897,262.482 125.051,262.010 125.209 C 261.831 125.268,261.685 125.590,261.685 125.924 C 261.685 128.892,259.223 133.528,257.049 134.657 C 253.187 136.661,248.606 134.693,246.904 130.299 C 246.499 129.253,246.054 128.152,245.915 127.853 C 244.850 125.560,244.863 113.180,245.932 112.112 C 246.077 111.967,246.196 111.679,246.196 111.473 C 246.196 110.627,247.663 107.438,248.265 106.975 C 248.621 106.701,248.913 106.326,248.913 106.142 C 248.913 105.786,250.641 104.720,251.855 104.326 C 253.191 103.893,255.798 104.219,257.094 104.982 M147.177 126.102 C 145.755 126.340,143.332 127.284,142.663 127.861 C 139.986 130.169,138.315 132.449,138.315 133.794 C 138.315 134.014,138.162 134.245,137.976 134.307 C 137.728 134.389,137.636 135.332,137.636 137.772 C 137.636 140.211,137.728 141.154,137.976 141.236 C 138.162 141.299,138.315 141.507,138.315 141.700 C 138.315 143.697,142.103 147.809,144.701 148.634 C 145.299 148.823,145.904 149.086,146.046 149.218 C 146.501 149.639,152.020 149.504,152.890 149.051 C 153.318 148.827,153.864 148.644,154.103 148.643 C 154.877 148.640,158.171 145.914,158.980 144.607 C 159.411 143.911,159.881 143.205,160.024 143.036 C 161.371 141.455,161.432 132.609,160.096 132.609 C 159.981 132.609,159.674 132.127,159.415 131.537 C 158.798 130.141,156.220 127.797,154.425 127.002 C 152.120 125.981,149.696 125.680,147.177 126.102 M112.636 153.067 C 110.543 153.372,108.791 153.724,108.741 153.849 C 108.691 153.974,108.233 154.076,107.722 154.076 L 106.793 154.076 106.793 184.488 L 106.793 214.901 108.166 215.195 C 108.920 215.357,109.705 215.489,109.909 215.489 C 110.114 215.489,110.322 215.604,110.371 215.743 C 110.939 217.335,132.609 217.334,132.609 215.742 C 132.609 215.603,132.762 215.488,132.948 215.486 C 133.513 215.482,136.093 214.197,136.732 213.601 C 137.061 213.295,137.438 213.043,137.570 213.043 C 137.862 213.043,141.033 209.872,141.033 209.579 C 141.033 209.464,141.308 209.062,141.644 208.685 C 142.421 207.815,143.015 206.696,143.474 205.231 C 143.674 204.596,143.931 204.076,144.047 204.076 C 145.749 204.076,145.588 186.038,143.871 184.321 C 143.655 184.105,143.478 183.770,143.478 183.577 C 143.478 183.017,142.342 180.435,142.096 180.435 C 141.974 180.435,141.675 180.016,141.432 179.504 C 140.793 178.157,137.848 175.348,136.345 174.651 C 135.635 174.322,135.054 173.969,135.054 173.869 C 135.054 173.768,134.474 173.496,133.764 173.265 C 128.803 171.649,121.378 172.038,117.323 174.125 C 117.211 174.183,117.120 169.329,117.120 163.338 C 117.120 154.788,117.047 152.453,116.780 152.479 C 116.593 152.497,114.728 152.762,112.636 153.067 M226.766 158.433 C 224.270 158.810,221.196 159.567,221.196 159.805 C 221.196 159.922,220.921 160.097,220.584 160.194 C 219.268 160.572,217.120 161.524,217.120 161.729 C 217.120 161.848,216.641 162.189,216.057 162.488 C 215.035 163.009,210.326 167.276,210.326 167.681 C 210.326 167.789,209.959 168.270,209.511 168.750 C 209.063 169.230,208.696 169.793,208.696 170.002 C 208.696 170.210,208.465 170.611,208.183 170.893 C 207.901 171.175,207.358 172.183,206.976 173.135 C 206.594 174.086,206.100 175.231,205.878 175.679 C 205.320 176.807,204.617 180.397,204.425 183.094 C 204.338 184.332,204.162 185.409,204.035 185.487 C 203.734 185.673,203.734 189.870,204.034 190.056 C 204.161 190.134,204.338 191.395,204.429 192.857 C 204.613 195.841,205.588 200.464,206.152 201.027 C 206.355 201.231,206.522 201.557,206.522 201.751 C 206.522 202.183,207.611 204.702,207.879 204.891 C 207.985 204.966,208.274 205.459,208.522 205.986 C 208.903 206.798,209.835 208.064,211.515 210.054 C 212.252 210.927,214.468 212.720,215.412 213.209 C 215.958 213.492,216.597 213.907,216.831 214.132 C 217.066 214.356,218.021 214.784,218.955 215.083 C 219.888 215.381,220.652 215.703,220.652 215.799 C 220.652 216.386,227.593 217.385,231.697 217.389 C 236.013 217.393,243.224 216.458,244.158 215.774 C 244.307 215.665,245.314 215.296,246.396 214.956 C 247.477 214.615,248.623 214.110,248.942 213.834 L 249.521 213.331 248.915 210.878 C 248.582 209.528,248.224 208.424,248.120 208.424 C 248.016 208.424,247.709 207.568,247.437 206.522 C 247.087 205.169,246.819 204.620,246.511 204.620 C 245.967 204.620,243.663 205.473,243.472 205.745 C 243.393 205.857,242.152 206.254,240.713 206.628 C 234.409 208.266,225.697 207.606,223.211 205.302 C 222.806 204.927,222.365 204.620,222.230 204.620 C 221.975 204.620,219.293 202.034,219.293 201.788 C 219.293 201.712,218.835 200.939,218.274 200.072 C 217.676 199.146,217.040 197.655,216.735 196.462 C 216.448 195.344,216.121 194.367,216.007 194.290 C 215.236 193.769,215.219 181.802,215.988 181.259 C 216.102 181.180,216.411 180.319,216.674 179.348 C 218.200 173.732,223.081 169.120,228.329 168.337 C 229.039 168.231,229.620 168.036,229.620 167.904 C 229.620 167.771,230.904 167.663,232.473 167.663 C 234.042 167.663,235.326 167.768,235.326 167.896 C 235.326 168.024,236.029 168.204,236.889 168.296 C 238.797 168.499,242.408 169.430,242.634 169.777 C 242.725 169.916,243.256 170.179,243.814 170.361 C 244.373 170.543,244.899 170.805,244.985 170.944 C 245.622 171.975,247.826 167.790,247.826 165.549 C 247.826 165.367,247.929 165.217,248.055 165.217 C 248.299 165.217,248.913 163.404,248.913 162.682 C 248.913 162.079,247.207 160.980,245.400 160.421 C 244.567 160.163,243.825 159.866,243.750 159.761 C 243.022 158.736,230.989 157.794,226.766 158.433 M273.098 172.302 C 270.836 172.586,267.916 173.346,267.391 173.788 C 267.167 173.976,266.549 174.310,266.017 174.529 C 265.486 174.749,264.725 175.219,264.325 175.576 C 263.926 175.932,263.200 176.518,262.710 176.878 C 261.501 177.768,259.646 180.118,258.780 181.856 C 258.388 182.644,257.977 183.349,257.868 183.424 C 257.542 183.647,256.555 187.246,256.358 188.927 C 256.257 189.786,256.070 190.489,255.941 190.489 C 255.812 190.489,255.707 192.385,255.707 194.701 C 255.707 197.018,255.812 198.913,255.941 198.913 C 256.070 198.913,256.253 199.555,256.348 200.340 C 256.544 201.968,257.472 205.174,257.815 205.412 C 257.942 205.499,258.329 206.243,258.677 207.065 C 259.513 209.044,263.063 213.273,263.916 213.308 C 264.022 213.312,264.328 213.546,264.595 213.827 C 264.863 214.109,265.754 214.624,266.576 214.972 C 267.398 215.319,268.224 215.753,268.411 215.935 C 269.977 217.460,284.200 217.300,284.737 215.750 C 284.787 215.607,284.972 215.489,285.147 215.489 C 285.618 215.489,288.041 214.155,288.698 213.534 C 289.011 213.239,289.582 212.832,289.967 212.630 C 290.352 212.428,290.963 211.828,291.325 211.296 C 291.687 210.765,292.068 210.329,292.172 210.328 C 292.275 210.327,292.703 209.715,293.123 208.968 C 293.543 208.221,293.967 207.609,294.066 207.609 C 294.165 207.609,294.574 206.722,294.975 205.639 C 295.377 204.555,295.867 203.302,296.064 202.853 C 297.305 200.039,297.226 187.024,295.963 186.150 C 295.848 186.071,295.537 185.303,295.271 184.444 C 295.005 183.585,294.494 182.451,294.136 181.923 C 293.778 181.395,293.312 180.630,293.100 180.223 C 292.761 179.571,290.526 177.196,288.995 175.862 C 288.696 175.601,287.840 175.087,287.092 174.718 C 286.345 174.350,285.694 173.960,285.645 173.850 C 285.150 172.745,277.291 171.775,273.098 172.302 M318.478 172.558 C 315.006 172.898,310.326 173.694,310.326 173.945 C 310.326 174.077,310.092 174.185,309.805 174.185 C 308.331 174.185,308.424 172.754,308.424 195.410 L 308.424 216.304 313.587 216.304 L 318.750 216.304 318.754 199.253 C 318.757 189.231,318.862 182.037,319.011 181.802 C 319.422 181.152,328.524 181.205,329.182 181.861 C 329.444 182.123,329.818 182.337,330.012 182.337 C 330.687 182.337,332.566 184.713,333.055 186.183 C 333.487 187.485,333.547 189.128,333.632 201.970 L 333.726 216.304 339.171 216.304 L 344.616 216.304 344.523 201.485 C 344.458 191.132,344.340 186.606,344.131 186.471 C 343.968 186.364,343.755 185.689,343.659 184.971 C 343.429 183.252,342.707 180.795,342.304 180.363 C 342.128 180.174,341.739 179.536,341.440 178.945 C 340.689 177.460,338.712 175.540,337.098 174.728 C 336.355 174.355,335.591 173.904,335.399 173.727 C 334.092 172.518,325.179 171.903,318.478 172.558 M57.065 186.152 C 57.065 198.608,57.326 204.367,57.901 204.574 C 58.039 204.624,58.152 204.883,58.152 205.150 C 58.152 206.525,59.482 209.754,60.500 210.851 C 60.853 211.232,61.141 211.696,61.141 211.882 C 61.141 212.068,61.630 212.544,62.228 212.940 C 62.826 213.335,63.315 213.752,63.315 213.866 C 63.315 214.106,65.876 215.489,66.319 215.489 C 66.482 215.489,66.779 215.653,66.980 215.854 C 68.423 217.297,87.834 217.231,88.859 215.780 C 88.933 215.674,89.881 215.432,90.965 215.242 L 92.935 214.896 92.935 193.997 L 92.935 173.098 87.772 173.098 L 82.609 173.098 82.609 190.188 C 82.609 209.308,82.808 207.609,80.564 207.609 C 79.913 207.609,79.304 207.731,79.212 207.880 C 79.002 208.220,75.162 208.240,74.521 207.906 C 74.261 207.770,73.512 207.516,72.856 207.340 C 70.355 206.670,69.154 205.291,68.478 202.310 C 68.309 201.563,68.028 200.707,67.855 200.408 C 67.630 200.021,67.510 195.990,67.438 186.481 L 67.337 173.098 62.201 173.098 L 57.065 173.098 57.065 186.152 M156.327 187.976 C 156.456 204.584,156.513 205.186,158.308 208.818 C 159.333 210.892,161.471 213.587,162.092 213.587 C 162.284 213.587,162.505 213.751,162.582 213.952 C 162.659 214.152,163.192 214.531,163.766 214.794 C 164.340 215.056,165.247 215.490,165.781 215.759 C 168.927 217.337,186.741 217.355,187.767 215.780 C 187.844 215.662,188.519 215.478,189.266 215.371 C 190.014 215.265,190.900 215.113,191.236 215.033 L 191.848 214.887 191.848 193.992 L 191.848 173.098 186.685 173.098 L 181.522 173.098 181.522 190.188 C 181.522 209.318,181.724 207.609,179.461 207.609 C 178.801 207.609,178.261 207.731,178.261 207.880 C 178.261 208.040,177.315 208.152,175.967 208.152 C 174.706 208.152,173.598 208.030,173.505 207.880 C 173.413 207.731,173.081 207.609,172.768 207.609 C 171.715 207.609,169.321 206.277,168.896 205.454 C 168.673 205.024,168.331 204.507,168.135 204.306 C 166.934 203.072,166.592 198.755,166.583 184.715 L 166.576 173.098 161.394 173.098 L 156.213 173.098 156.327 187.976 M280.132 182.001 C 282.768 183.276,284.875 185.891,285.468 188.627 C 285.577 189.128,285.804 189.625,285.972 189.732 C 286.385 189.995,286.398 199.124,285.985 199.399 C 285.825 199.505,285.531 200.204,285.332 200.951 C 284.892 202.600,284.361 203.701,283.638 204.458 C 283.340 204.771,282.923 205.283,282.713 205.596 C 282.503 205.908,281.629 206.500,280.771 206.911 C 279.914 207.321,279.000 207.768,278.740 207.905 C 276.103 209.288,270.372 206.870,268.701 203.668 C 268.389 203.071,268.058 202.520,267.965 202.446 C 266.170 201.000,266.233 188.620,268.044 186.808 C 268.283 186.570,268.478 186.209,268.478 186.007 C 268.478 185.805,268.784 185.276,269.158 184.832 C 269.531 184.388,269.837 183.904,269.837 183.756 C 269.837 183.608,270.051 183.413,270.313 183.322 C 270.574 183.231,271.393 182.779,272.132 182.316 C 274.538 180.810,277.435 180.696,280.132 182.001 M128.497 181.736 C 128.602 181.906,129.117 182.224,129.642 182.443 C 131.181 183.086,133.696 186.480,133.696 187.915 C 133.696 188.110,133.811 188.311,133.952 188.361 C 134.979 188.723,134.979 199.864,133.952 200.226 C 133.811 200.276,133.694 200.460,133.693 200.634 C 133.672 203.094,128.841 207.609,126.229 207.609 C 126.019 207.609,125.772 207.731,125.679 207.880 C 125.585 208.033,124.278 208.152,122.690 208.152 C 121.103 208.152,119.796 208.033,119.701 207.880 C 119.609 207.731,119.184 207.609,118.756 207.609 C 117.007 207.609,117.120 208.453,117.120 195.348 L 117.120 183.417 118.648 182.741 C 119.489 182.369,120.345 182.065,120.550 182.065 C 120.756 182.065,120.924 181.951,120.924 181.812 C 120.924 181.217,128.132 181.145,128.497 181.736 " stroke="none" fill="#FFFFFF" fill-rule="evenodd"></path><path id="path1" d="" stroke="none" fill="#FFFFFF" fill-rule="evenodd"></path><path id="path2" d="" stroke="none" fill="#FFFFFF" fill-rule="evenodd"></path><path id="path3" d="" stroke="none" fill="#FFFFFF" fill-rule="evenodd"></path><path id="path4" d="" stroke="none" fill="#FFFFFF" fill-rule="evenodd"></path></g></svg>